<svg width="360" height="797" viewBox="0 0 360 797" fill="none" xmlns="http://www.w3.org/2000/svg">
<line x1="-511.641" y1="337.948" x2="201.718" y2="1051.31" stroke="#61C199" stroke-opacity="0.35" stroke-width="0.797925"/>
<line x1="-437.18" y1="263.487" x2="276.18" y2="976.846" stroke="#61C199" stroke-opacity="0.35" stroke-width="0.797925"/>
<line x1="-362.718" y1="189.025" x2="350.641" y2="902.385" stroke="#61C199" stroke-opacity="0.35" stroke-width="0.797925"/>
<line x1="-288.257" y1="114.564" x2="425.103" y2="827.923" stroke="#61C199" stroke-opacity="0.35" stroke-width="0.797925"/>
<line x1="-213.795" y1="40.102" x2="499.564" y2="753.462" stroke="#61C199" stroke-opacity="0.35" stroke-width="0.797925"/>
<line x1="-139.334" y1="-34.3594" x2="574.026" y2="679" stroke="#61C199" stroke-opacity="0.35" stroke-width="0.797925"/>
<line x1="-64.8721" y1="-108.821" x2="648.487" y2="604.539" stroke="#61C199" stroke-opacity="0.35" stroke-width="0.797925"/>
<line x1="9.5896" y1="-183.282" x2="722.949" y2="530.077" stroke="#61C199" stroke-opacity="0.35" stroke-width="0.797925"/>
<line x1="84.0509" y1="-257.744" x2="797.41" y2="455.616" stroke="#61C199" stroke-opacity="0.35" stroke-width="0.797925"/>
<line x1="158.512" y1="-332.205" x2="871.872" y2="381.154" stroke="#61C199" stroke-opacity="0.35" stroke-width="0.797925"/>
<line x1="157.948" y1="1051.31" x2="871.308" y2="337.948" stroke="#61C199" stroke-opacity="0.25" stroke-width="0.797925"/>
<line x1="83.4868" y1="976.846" x2="796.846" y2="263.487" stroke="#61C199" stroke-opacity="0.25" stroke-width="0.797925"/>
<line x1="9.02514" y1="902.385" x2="722.385" y2="189.025" stroke="#61C199" stroke-opacity="0.25" stroke-width="0.797925"/>
<line x1="-65.4363" y1="827.923" x2="647.923" y2="114.564" stroke="#61C199" stroke-opacity="0.25" stroke-width="0.797925"/>
<line x1="-139.898" y1="753.462" x2="573.462" y2="40.1021" stroke="#61C199" stroke-opacity="0.25" stroke-width="0.797925"/>
<line x1="-214.359" y1="679" x2="499" y2="-34.3594" stroke="#61C199" stroke-opacity="0.25" stroke-width="0.797925"/>
<line x1="-288.821" y1="604.539" x2="424.539" y2="-108.821" stroke="#61C199" stroke-opacity="0.25" stroke-width="0.797925"/>
<line x1="-363.282" y1="530.077" x2="350.077" y2="-183.282" stroke="#61C199" stroke-opacity="0.25" stroke-width="0.797925"/>
<line x1="-437.744" y1="455.615" x2="275.616" y2="-257.744" stroke="#61C199" stroke-opacity="0.25" stroke-width="0.797925"/>
<line x1="-512.205" y1="381.154" x2="201.154" y2="-332.205" stroke="#61C199" stroke-opacity="0.25" stroke-width="0.797925"/>
<g opacity="0.4">
<path d="M104.679 62.52L77.461 73.157L72.0643 67.7602L82.7013 40.5421L88.2154 46.0561L80.4331 64.7099L99.087 56.9277L104.679 62.52Z" fill="#61C199"/>
<path d="M323.173 118.601C321.412 120.361 319.355 121.206 317 121.134C314.668 121.039 312.61 120.099 310.826 118.315L310.755 118.244C308.971 116.46 308.031 114.378 307.936 111.999C307.841 109.62 308.685 107.539 310.469 105.755C312.23 103.994 314.276 103.162 316.607 103.257C318.962 103.328 321.032 104.256 322.816 106.04L322.887 106.111C324.672 107.896 325.611 109.977 325.706 112.356C325.802 114.735 324.957 116.817 323.173 118.601ZM313.645 109.073C312.908 109.811 312.634 110.679 312.824 111.678C313.015 112.63 313.55 113.546 314.43 114.426L314.502 114.497C315.358 115.354 316.31 115.877 317.356 116.067C318.427 116.234 319.307 115.972 319.997 115.282C320.734 114.545 320.996 113.688 320.782 112.713C320.592 111.714 320.068 110.786 319.212 109.93L319.141 109.858C318.284 109.002 317.321 108.49 316.25 108.324C315.203 108.133 314.335 108.383 313.645 109.073ZM328.668 111.179L325.385 91.4096L329.632 87.1632L333.093 110.608L336.376 130.376L332.129 134.623L328.668 111.179ZM351.292 116.032C349.531 117.792 347.474 118.636 345.118 118.565C342.787 118.47 340.729 117.53 338.945 115.746L338.874 115.675C337.09 113.89 336.15 111.809 336.055 109.43C335.96 107.051 336.804 104.969 338.588 103.185C340.349 101.425 342.395 100.592 344.726 100.687C347.081 100.759 349.151 101.687 350.935 103.471L351.006 103.542C352.79 105.326 353.73 107.408 353.825 109.787C353.92 112.166 353.076 114.247 351.292 116.032ZM348.116 112.713C348.853 111.975 349.115 111.119 348.901 110.144C348.711 109.145 348.187 108.217 347.331 107.36L347.259 107.289C346.403 106.433 345.44 105.921 344.369 105.755C343.322 105.564 342.454 105.814 341.764 106.504C341.027 107.241 340.753 108.11 340.943 109.109C341.134 110.06 341.669 110.976 342.549 111.856L342.621 111.928C343.477 112.784 344.429 113.308 345.475 113.498C346.546 113.664 347.426 113.403 348.116 112.713Z" fill="black" fill-opacity="0.25"/>
<path d="M270.028 645.143L276.487 651.53L270.135 657.81L274.988 662.663L281.269 656.312L287.656 662.771L292.366 658.06L285.908 651.673L292.259 645.392L287.406 640.539L281.126 646.891L274.738 640.432L270.028 645.143ZM256.504 658.667L274.132 676.295L278.628 671.799L261 654.171L256.504 658.667Z" fill="black" fill-opacity="0.25"/>
<path d="M244.573 348.878L239.176 343.481L258.495 324.162L263.891 329.559L244.573 348.878ZM254.74 359.045L249.344 353.649L268.662 334.33L274.059 339.727L254.74 359.045Z" fill="#61C199"/>
<path d="M37.5785 575.118L30.5393 568.079L23.461 575.157L18.0643 569.76L25.1426 562.682L18.1034 555.643L23.6566 550.09L30.6958 557.129L37.7741 550.051L43.1708 555.447L36.0925 562.526L43.1317 569.565L37.5785 575.118Z" fill="#61C199"/>
</g>
</svg>
