<svg width="734" height="734" viewBox="0 0 734 734" fill="none" xmlns="http://www.w3.org/2000/svg">
<path opacity="0.4" d="M566.82 520.731L536.093 532.7L530 526.627L542.008 496L548.233 502.205L542.008 520.731L560.507 514.438L566.82 520.731Z" fill="black" fill-opacity="0.25"/>
<path opacity="0.4" d="M618.701 42.9883L625.333 49.5249L618.811 55.952L623.794 60.9183L630.242 54.4182L636.8 61.0279L641.636 56.2076L635.005 49.671L641.526 43.2439L636.543 38.2775L630.095 44.7776L623.537 38.168L618.701 42.9883ZM604.816 56.8284L622.914 74.868L627.531 70.2668L609.432 52.2272L604.816 56.8284Z" fill="#61C199"/>
<g opacity="0.4">
<path d="M233.885 407.82L240.517 414.357L233.995 420.784L238.978 425.75L245.426 419.25L251.984 425.86L256.82 421.04L250.189 414.503L256.71 408.076L251.727 403.11L245.279 409.61L238.721 403L233.885 407.82ZM220 421.66L238.099 439.7L242.715 435.099L224.616 417.059L220 421.66Z" fill="black" fill-opacity="0.25"/>
</g>
<g opacity="0.4">
<path d="M170.844 130.568C169.014 132.392 166.876 133.266 164.428 133.193C162.005 133.094 159.866 132.121 158.012 130.272L157.937 130.198C156.083 128.35 155.106 126.193 155.008 123.729C154.909 121.265 155.786 119.108 157.641 117.26C159.47 115.436 161.597 114.573 164.02 114.672C166.468 114.746 168.619 115.707 170.473 117.555L170.547 117.629C172.402 119.478 173.378 121.634 173.477 124.099C173.576 126.563 172.698 128.72 170.844 130.568ZM160.942 120.698C160.175 121.462 159.891 122.361 160.089 123.396C160.286 124.382 160.843 125.331 161.757 126.243L161.832 126.317C162.722 127.204 163.711 127.746 164.799 127.943C165.911 128.116 166.826 127.845 167.543 127.13C168.31 126.366 168.582 125.479 168.359 124.468C168.161 123.433 167.617 122.472 166.727 121.585L166.653 121.511C165.763 120.624 164.762 120.094 163.649 119.921C162.561 119.724 161.659 119.983 160.942 120.698ZM176.556 122.879L173.143 102.399L177.557 98L181.154 122.287L184.567 142.767L180.153 147.166L176.556 122.879ZM200.069 127.906C198.24 129.73 196.101 130.605 193.653 130.531C191.23 130.432 189.091 129.459 187.237 127.61L187.163 127.537C185.308 125.688 184.332 123.532 184.233 121.067C184.134 118.603 185.012 116.447 186.866 114.598C188.696 112.774 190.822 111.912 193.245 112.01C195.693 112.084 197.844 113.046 199.698 114.894L199.773 114.968C201.627 116.816 202.604 118.973 202.702 121.437C202.801 123.902 201.924 126.058 200.069 127.906ZM196.768 124.468C197.535 123.704 197.807 122.817 197.584 121.807C197.387 120.772 196.843 119.81 195.952 118.923L195.878 118.849C194.988 117.962 193.987 117.432 192.874 117.26C191.786 117.063 190.884 117.321 190.167 118.036C189.4 118.8 189.116 119.7 189.314 120.735C189.512 121.72 190.068 122.669 190.983 123.581L191.057 123.655C191.947 124.542 192.936 125.084 194.024 125.282C195.137 125.454 196.051 125.183 196.768 124.468Z" fill="black" fill-opacity="0.25"/>
</g>
<g opacity="0.4">
<path d="M431.844 697.568C430.014 699.392 427.876 700.266 425.428 700.193C423.005 700.094 420.866 699.121 419.012 697.272L418.937 697.198C417.083 695.35 416.106 693.193 416.008 690.729C415.909 688.265 416.786 686.108 418.641 684.26C420.47 682.436 422.597 681.573 425.02 681.672C427.468 681.746 429.619 682.707 431.473 684.555L431.547 684.629C433.402 686.478 434.378 688.634 434.477 691.099C434.576 693.563 433.698 695.72 431.844 697.568ZM421.942 687.698C421.175 688.462 420.891 689.361 421.089 690.396C421.286 691.382 421.843 692.331 422.757 693.243L422.832 693.317C423.722 694.204 424.711 694.746 425.799 694.943C426.911 695.116 427.826 694.845 428.543 694.13C429.31 693.366 429.582 692.479 429.359 691.468C429.161 690.433 428.617 689.472 427.727 688.585L427.653 688.511C426.763 687.624 425.762 687.094 424.649 686.921C423.561 686.724 422.659 686.983 421.942 687.698ZM437.556 689.879L434.143 669.399L438.557 665L442.154 689.287L445.567 709.767L441.153 714.166L437.556 689.879ZM461.069 694.906C459.24 696.73 457.101 697.605 454.653 697.531C452.23 697.432 450.091 696.459 448.237 694.61L448.163 694.537C446.308 692.688 445.332 690.532 445.233 688.067C445.134 685.603 446.012 683.447 447.866 681.598C449.696 679.774 451.822 678.912 454.245 679.01C456.693 679.084 458.844 680.046 460.698 681.894L460.773 681.968C462.627 683.816 463.604 685.973 463.702 688.437C463.801 690.902 462.924 693.058 461.069 694.906ZM457.768 691.468C458.535 690.704 458.807 689.817 458.584 688.807C458.387 687.772 457.843 686.81 456.952 685.923L456.878 685.849C455.988 684.962 454.987 684.432 453.874 684.26C452.786 684.063 451.884 684.321 451.167 685.036C450.4 685.8 450.116 686.7 450.314 687.735C450.512 688.72 451.068 689.669 451.983 690.581L452.057 690.655C452.947 691.542 453.936 692.084 455.024 692.282C456.137 692.454 457.051 692.183 457.768 691.468Z" fill="black" fill-opacity="0.25"/>
</g>
<g opacity="0.4">
<path d="M469.696 262.003L464 256.325L484.391 236L490.088 241.678L469.696 262.003ZM480.429 272.7L474.732 267.022L495.124 246.697L500.82 252.375L480.429 272.7Z" fill="#61C199"/>
</g>
<g opacity="0.4">
<path d="M117.339 664.827L107.05 654.571L96.7028 664.884L88.814 657.021L99.1609 646.708L88.8711 636.452L96.9886 628.361L107.278 638.617L117.625 628.304L125.514 636.167L115.167 646.48L125.457 656.736L117.339 664.827Z" fill="#61C199"/>
</g>
<line x1="734.26" y1="0.259508" x2="0.259401" y2="734.26" stroke="#61C199" stroke-opacity="0.35" stroke-width="0.734"/>
<line x1="734.26" y1="147.059" x2="147.059" y2="734.259" stroke="#61C199" stroke-opacity="0.35" stroke-width="0.734"/>
<line x1="587.46" y1="0.259508" x2="0.259618" y2="587.459" stroke="#61C199" stroke-opacity="0.35" stroke-width="0.734"/>
<line x1="734.26" y1="293.86" x2="293.859" y2="734.26" stroke="#61C199" stroke-opacity="0.35" stroke-width="0.734"/>
<line x1="440.659" y1="0.259508" x2="0.259346" y2="440.659" stroke="#61C199" stroke-opacity="0.35" stroke-width="0.734"/>
<line x1="734.26" y1="440.659" x2="440.659" y2="734.259" stroke="#61C199" stroke-opacity="0.35" stroke-width="0.734"/>
<line x1="293.86" y1="0.259508" x2="0.259563" y2="293.859" stroke="#61C199" stroke-opacity="0.35" stroke-width="0.734"/>
<line x1="734.26" y1="593.332" x2="593.331" y2="734.26" stroke="#61C199" stroke-opacity="0.35" stroke-width="0.734"/>
<line x1="147.052" y1="0.251911" x2="0.251694" y2="147.052" stroke="#61C199" stroke-opacity="0.35" stroke-width="0.712512"/>
<line x1="0.259508" y1="-0.259508" x2="734.26" y2="733.741" stroke="#61C199" stroke-opacity="0.35" stroke-width="0.734"/>
<line x1="147.059" y1="-0.259508" x2="734.259" y2="586.941" stroke="#61C199" stroke-opacity="0.35" stroke-width="0.734"/>
<line x1="0.259508" y1="146.54" x2="587.46" y2="733.74" stroke="#61C199" stroke-opacity="0.35" stroke-width="0.734"/>
<line x1="293.86" y1="-0.259508" x2="734.26" y2="440.141" stroke="#61C199" stroke-opacity="0.35" stroke-width="0.734"/>
<line x1="0.259508" y1="293.341" x2="440.66" y2="733.741" stroke="#61C199" stroke-opacity="0.35" stroke-width="0.734"/>
<line x1="440.659" y1="-0.259508" x2="734.259" y2="293.341" stroke="#61C199" stroke-opacity="0.35" stroke-width="0.734"/>
<line x1="0.259508" y1="440.14" x2="293.86" y2="733.74" stroke="#61C199" stroke-opacity="0.35" stroke-width="0.734"/>
<line x1="593.332" y1="-0.259508" x2="734.26" y2="140.669" stroke="#61C199" stroke-opacity="0.35" stroke-width="0.734"/>
<line x1="0.251911" y1="586.948" x2="147.052" y2="733.748" stroke="#61C199" stroke-opacity="0.35" stroke-width="0.712512"/>
</svg>
