<svg width="500" height="500" viewBox="0 0 500 500" fill="none" xmlns="http://www.w3.org/2000/svg">
<rect width="170.45" height="170.45" rx="21.1123" transform="matrix(0.707107 0.707107 0.707107 -0.707107 0 249.682)" fill="black"/>
<ellipse cx="121.078" cy="275.699" rx="17.6327" ry="17.6327" transform="rotate(180 121.078 275.699)" fill="white"/>
<ellipse cx="121.078" cy="222.801" rx="17.6327" ry="17.6327" transform="rotate(180 121.078 222.801)" fill="white"/>
<rect width="170.45" height="170.45" rx="21.1123" transform="matrix(0.707107 0.707107 0.707107 -0.707107 128.838 120.844)" fill="#61C199"/>
<rect width="170.45" height="170.45" rx="21.1123" transform="matrix(0.707107 0.707107 0.707107 -0.707107 128.838 378.521)" fill="#61C199"/>
<rect x="303.012" y="363.374" width="29.8762" height="106.701" transform="rotate(90 303.012 363.374)" fill="white"/>
<rect x="303.012" y="363.374" width="29.8762" height="106.701" transform="rotate(90 303.012 363.374)" fill="white"/>
<rect x="303.012" y="105.936" width="29.8762" height="106.701" transform="rotate(90 303.012 105.936)" fill="white"/>
<rect x="303.012" y="105.936" width="29.8762" height="106.701" transform="rotate(90 303.012 105.936)" fill="white"/>
<rect x="266.307" y="174.57" width="29.8762" height="106.701" transform="rotate(180 266.307 174.57)" fill="white"/>
<rect x="266.307" y="174.57" width="29.8762" height="106.701" transform="rotate(180 266.307 174.57)" fill="white"/>
<rect width="170.45" height="170.45" rx="21.1123" transform="matrix(0.707107 0.707107 0.707107 -0.707107 258.948 250.318)" fill="black"/>
<ellipse cx="345.483" cy="282.871" rx="18.8082" ry="18.8082" transform="rotate(180 345.483 282.871)" fill="white"/>
<ellipse cx="411.55" cy="216.804" rx="18.8082" ry="18.8082" transform="rotate(180 411.55 216.804)" fill="white"/>
<rect width="29.8762" height="106.701" transform="matrix(-0.707107 0.707107 0.707107 0.707107 351.446 201.459)" fill="white"/>
</svg>
