<svg width="275" height="275" viewBox="0 0 275 275" fill="none" xmlns="http://www.w3.org/2000/svg">
<path d="M119.889 105.825L95.5403 198.11L123.029 181.615L138.737 204.787L136.774 107.789L119.889 105.825Z" fill="#E9CB30"/>
<mask id="mask0_33_95" style="mask-type:luminance" maskUnits="userSpaceOnUse" x="95" y="105" width="44" height="100">
<path d="M119.889 105.825L95.5403 198.11L123.029 181.615L138.737 204.787L136.774 107.789L119.889 105.825Z" fill="white"/>
</mask>
<g mask="url(#mask0_33_95)">
<path d="M124.124 176.654L101.425 190.278L122.639 109.862L133.149 111.083L134.799 192.395L124.124 176.654Z" fill="white"/>
<path opacity="0.3" d="M137.225 129.976L136.774 107.8L119.9 105.825L114.691 125.565C116.55 129.31 117.826 134.288 121.088 135.349C125.488 136.768 131.345 129.849 136.196 129.849C136.542 129.86 136.887 129.902 137.225 129.976Z" fill="black"/>
</g>
<path d="M153.444 106.53L192.247 193.727L166.622 180.78L150.678 207.229L137.093 111.172L153.444 106.53Z" fill="#E9CB30"/>
<mask id="mask1_33_95" style="mask-type:luminance" maskUnits="userSpaceOnUse" x="137" y="106" width="56" height="102">
<path d="M153.444 106.53L192.247 193.727L166.622 180.78L150.678 207.229L137.093 111.172L153.444 106.53Z" fill="white"/>
</mask>
<g mask="url(#mask1_33_95)">
<path d="M141.196 113.839L151.376 110.952L184.662 185.763L165.231 175.94L152.878 196.438L141.196 113.839Z" fill="white"/>
<path opacity="0.3" d="M153.45 106.53L137.098 111.172L139.7 129.509H139.942C144.793 129.509 150.678 136.4 155.056 134.981C158.411 133.881 159.665 128.64 161.617 124.861L153.45 106.53Z" fill="black"/>
</g>
<path d="M188.82 82.5C188.82 87.351 180.389 90.8105 178.964 95.183C177.496 99.7205 182.231 107.464 179.481 111.243C176.731 115.021 167.86 112.931 164.048 115.703C160.237 118.475 159.577 127.539 155.039 129.008C150.639 130.432 144.776 123.508 139.925 123.508C135.074 123.508 129.195 130.405 124.817 129.008C120.279 127.539 119.581 118.453 115.808 115.703C112.035 112.953 103.158 115.054 100.369 111.243C97.5809 107.431 102.36 99.7205 100.886 95.1885C99.4674 90.7885 91.0359 87.351 91.0359 82.5C91.0359 77.649 99.4674 74.1895 100.886 69.817C102.36 65.2795 97.6249 57.5355 100.369 53.757C103.114 49.9785 111.991 52.0685 115.808 49.2965C119.625 46.5245 120.279 37.4605 124.817 35.992C129.217 34.5675 135.074 41.4645 139.925 41.4645C144.776 41.4645 150.661 34.5675 155.039 35.992C159.571 37.4605 160.27 46.5465 164.048 49.2965C167.827 52.0465 176.698 49.9455 179.481 53.757C182.264 57.5685 177.496 65.307 178.964 69.8115C180.4 74.1675 188.82 77.627 188.82 82.5Z" fill="#E9CB30"/>
<path opacity="0.6" d="M183.485 82.5C183.485 86.823 175.972 89.903 174.685 93.8025C173.371 97.845 177.589 104.742 175.142 108.102C172.694 111.463 164.791 109.609 161.392 112.079C157.993 114.548 157.41 122.622 153.367 123.937C149.468 125.202 144.226 119.058 139.903 119.058C135.58 119.058 130.35 125.18 126.467 123.915C122.424 122.6 121.803 114.51 118.437 112.057C115.071 109.604 107.162 111.479 104.687 108.08C102.212 104.681 106.458 97.823 105.149 93.7805C103.878 89.881 96.3489 86.801 96.3489 82.478C96.3489 78.155 103.856 75.075 105.149 71.1755C106.458 67.133 102.239 60.236 104.687 56.8755C107.134 53.515 115.043 55.3685 118.437 52.899C121.83 50.4295 122.424 42.3555 126.467 41.041C130.361 39.776 135.608 45.9195 139.925 45.9195C144.243 45.9195 149.49 39.776 153.389 41.041C157.432 42.3555 158.053 50.446 161.414 52.899C164.774 55.352 172.694 53.449 175.164 56.8755C177.633 60.302 173.393 67.133 174.707 71.1755C176 75.075 183.485 78.155 183.485 82.5Z" fill="white"/>
<path d="M139.925 118.8C159.985 118.8 176.247 102.538 176.247 82.478C176.247 62.4179 159.985 46.156 139.925 46.156C119.865 46.156 103.603 62.4179 103.603 82.478C103.603 102.538 119.865 118.8 139.925 118.8Z" fill="white"/>
<path d="M122.617 65.45C126.956 63.316 130.383 62.1005 135.943 55.473H149.495V98.571H156.574V108.697H126.12V98.593H133.732V70.345L126.12 73.9255L122.617 65.45Z" fill="#263238"/>
<path opacity="0.2" d="M197.566 260.414C226.064 260.414 249.167 255.888 249.167 250.305C249.167 244.722 226.064 240.196 197.566 240.196C169.067 240.196 145.965 244.722 145.965 250.305C145.965 255.888 169.067 260.414 197.566 260.414Z" fill="black"/>
<path d="M245.267 121.792C244.459 118.014 244.008 118.195 239.421 116.754C234.377 115.171 229.14 114.292 223.856 114.142C220.455 114.013 217.055 114.408 213.774 115.313C213.774 115.313 208.01 116.034 203.874 116.963C200.327 124.047 204.331 133.771 204.331 133.771C204.331 133.771 209.369 144.837 209.369 150.508C209.369 156.178 205.046 166.073 204.87 166.342C204.694 166.612 191.554 189.442 188.221 197.203C184.888 204.963 184.806 208.093 186.604 211.151C188.403 214.209 208.918 242.462 208.918 242.462C208.918 242.462 203.418 248.76 200.91 250.382C198.402 252.005 195.25 252.258 196.35 253.611C197.45 254.964 204.716 255.497 206.696 255.046C208.676 254.595 213.175 250.646 215.782 248.842C218.389 247.038 220.732 245.779 219.742 243.529C218.752 241.28 216.59 239.3 215.694 237.479C214.797 235.659 211.552 230.461 209.754 223.982C207.955 217.503 206.608 213.637 204.534 210.128C202.461 206.619 201.025 205.271 201.025 205.271C201.025 205.271 208.764 198.16 212.905 194.563C217.047 190.966 220.732 187.996 220.732 187.996C220.732 187.996 234.768 173.597 236.027 170.445C237.287 167.294 240.708 157.399 243.227 148.764C245.746 140.129 246.076 125.571 245.267 121.792Z" fill="#E9CB30" stroke="#263238" stroke-width="0.967197" stroke-linecap="round" stroke-linejoin="round"/>
<path d="M204.331 133.76C204.331 133.76 200.327 124.036 203.874 116.952C202.9 117.157 201.939 117.421 200.998 117.744C197.582 119.004 180.934 125.994 179.223 126.742C177.513 127.49 174.367 130.07 175.175 132.792C175.984 135.515 177.243 136.301 183.002 136.389C188.76 136.477 204.331 133.76 204.331 133.76Z" fill="#263238" stroke="#263238" stroke-width="0.967197" stroke-linecap="round" stroke-linejoin="round"/>
<path d="M192.093 84.634C192.093 84.634 197.219 87.241 197.489 87.692C197.758 88.143 197.401 89.1275 197.038 89.848C196.675 90.5685 194.7 92.279 193.804 92.6365C192.907 92.994 193.622 90.299 193.622 88.7865C193.622 87.274 191.01 85.998 190.74 85.2775C190.471 84.557 191.4 84.359 192.093 84.634Z" fill="white" stroke="#263238" stroke-width="0.967197" stroke-linecap="round" stroke-linejoin="round"/>
<path d="M182.281 135.74L180.307 136.29C178.327 136.84 174.906 137.099 174.367 136.378C173.828 135.658 171.936 126.121 172.205 120.813C172.475 115.506 180.395 92.829 181.297 91.113C182.199 89.397 189.932 83.8255 189.932 83.8255C189.932 83.8255 190.922 83.556 192.093 84.6395C193.265 85.723 196.592 87.967 196.411 88.8635C196.229 89.76 194.343 92.466 193.529 93.1865C192.715 93.907 191.461 93.1865 191.461 93.1865C191.461 93.1865 190.471 94.8915 189.211 95.436C187.952 95.9805 184.982 95.3425 184.982 95.3425C184.982 95.3425 182.556 110.462 183.271 116.243C183.986 122.023 185.433 128.75 184.371 131.989" fill="#263238"/>
<path d="M182.281 135.74L180.307 136.29C178.327 136.84 174.906 137.099 174.367 136.378C173.828 135.658 171.936 126.121 172.205 120.813C172.475 115.506 180.395 92.829 181.297 91.113C182.199 89.397 189.932 83.8255 189.932 83.8255C189.932 83.8255 190.922 83.556 192.093 84.6395C193.265 85.723 196.592 87.967 196.411 88.8635C196.229 89.76 194.343 92.466 193.529 93.1865C192.715 93.907 191.461 93.1865 191.461 93.1865C191.461 93.1865 190.471 94.8915 189.211 95.436C187.952 95.9805 184.982 95.3425 184.982 95.3425C184.982 95.3425 182.556 110.462 183.271 116.243C183.986 122.023 185.433 128.75 184.371 131.989" stroke="#263238" stroke-width="0.967197" stroke-linecap="round" stroke-linejoin="round"/>
<path d="M189.2 95.4305C190.46 94.8805 191.45 93.181 191.45 93.181C191.45 93.181 192.709 93.9015 193.518 93.181C194.326 92.4605 196.218 89.76 196.4 88.858C196.581 87.956 193.248 85.712 192.082 84.634C190.916 83.556 189.921 83.82 189.921 83.82C189.921 83.82 182.182 89.4025 181.286 91.1075C181.066 91.5255 180.433 93.181 179.592 95.5075C181.095 96.5547 182.836 97.2106 184.657 97.416C184.844 96.118 184.971 95.3205 184.971 95.3205C184.971 95.3205 187.952 95.9695 189.2 95.4305Z" fill="white" stroke="#263238" stroke-width="0.967197" stroke-linecap="round" stroke-linejoin="round"/>
<path d="M197.214 89.6776C197.214 89.6776 198.473 90.0351 198.116 90.9371C197.758 91.8391 196.405 92.8236 195.597 92.7356C194.788 92.6476 194.607 91.5641 195.146 90.6676C195.685 89.7711 196.763 89.3146 197.214 89.6776Z" fill="white" stroke="#263238" stroke-width="0.967197" stroke-linecap="round" stroke-linejoin="round"/>
<path d="M191.461 93.181C191.461 93.181 190.74 92.367 191.191 91.74C191.642 91.113 192.539 91.5585 192.539 91.5585L191.191 89.848" stroke="#263238" stroke-width="0.967197" stroke-linecap="round" stroke-linejoin="round"/>
<path d="M202.147 158.862C204.96 158.862 207.24 156.582 207.24 153.769C207.24 150.956 204.96 148.676 202.147 148.676C199.334 148.676 197.054 150.956 197.054 153.769C197.054 156.582 199.334 158.862 202.147 158.862Z" fill="white" stroke="#263238" stroke-width="0.967197" stroke-linecap="round" stroke-linejoin="round"/>
<path d="M200.811 148.775C201.344 147.336 202.188 146.032 203.282 144.956C204.376 143.88 205.693 143.058 207.141 142.549C212.179 140.668 220.385 138.699 225.132 132.468C229.878 126.236 228.162 114.318 228.162 114.318L231.853 114.818C231.853 114.818 231.358 126.731 228.987 133.056C226.617 139.381 219.395 142.956 213.664 143.935C207.933 144.914 203.187 144.821 200.811 148.775Z" fill="white" stroke="#263238" stroke-width="0.967197" stroke-linecap="round" stroke-linejoin="round"/>
<path d="M200.811 148.775C200.811 148.775 200.217 144.722 203.874 140.47C207.532 136.219 213.466 131.577 214.456 127.226C215.446 122.876 214.357 115.363 214.357 115.363L217.52 114.472C218.39 118.408 218.424 122.484 217.619 126.434C216.233 132.561 212.872 135.531 208.72 138.694C204.567 141.856 200.811 148.775 200.811 148.775Z" fill="white" stroke="#263238" stroke-width="0.967197" stroke-linecap="round" stroke-linejoin="round"/>
<path d="M241.577 118.552C240.516 119.428 239.642 120.508 239.009 121.729C238.376 122.951 237.996 124.287 237.892 125.658C237.529 130.339 238.337 142.664 238.337 147.526C238.337 152.388 234.74 159.67 235.279 163.449C235.818 167.227 240.779 171.726 243.469 168.762C246.158 165.797 248.237 156.255 249.227 143.924C250.217 131.593 249.409 123.321 247.88 120.824C246.351 118.327 243.826 116.66 241.577 118.552Z" fill="#263238" stroke="#263238" stroke-width="0.967197" stroke-linecap="round" stroke-linejoin="round"/>
<path d="M244.547 165.072C243.997 168.13 242.297 171.122 240.499 171.727C238.7 172.332 236.649 169.84 233.75 165.16C230.852 160.479 229.35 155.353 228.25 149.952C227.275 145.015 226.555 140.031 226.094 135.02C226.001 132.952 226.094 132.407 227.26 131.17C228.426 129.932 232.661 128.92 232.661 128.92L233.382 127.661C233.739 127.034 235.631 126.671 236.528 127.215C237.424 127.76 237.881 130.724 237.881 130.724C237.881 130.724 240.4 132.16 240.4 133.601C240.4 135.042 238.777 136.571 236.979 139.002C235.18 141.433 234.641 140.531 234.46 142.78C234.278 145.03 235.56 148 237.787 150.068C240.015 152.136 243.287 154.655 244.178 158.703" fill="#263238"/>
<path d="M244.547 165.072C243.997 168.13 242.297 171.122 240.499 171.727C238.7 172.332 236.649 169.84 233.75 165.16C230.852 160.479 229.35 155.353 228.25 149.952C227.275 145.015 226.555 140.031 226.094 135.02C226.001 132.952 226.094 132.407 227.26 131.17C228.426 129.932 232.661 128.92 232.661 128.92L233.382 127.661C233.739 127.034 235.631 126.671 236.528 127.215C237.424 127.76 237.881 130.724 237.881 130.724C237.881 130.724 240.4 132.16 240.4 133.601C240.4 135.042 238.777 136.571 236.979 139.002C235.18 141.433 234.641 140.531 234.46 142.78C234.278 145.03 235.56 148 237.787 150.068C240.015 152.136 243.287 154.655 244.178 158.703" stroke="#263238" stroke-width="0.967197" stroke-linecap="round" stroke-linejoin="round"/>
<path d="M234.454 143.253C234.454 143.088 234.454 142.918 234.454 142.758C234.636 140.509 235.175 141.405 236.973 138.98C238.772 136.554 240.394 135.02 240.394 133.579C240.394 132.138 237.875 130.702 237.875 130.702C237.875 130.702 237.424 127.732 236.522 127.193C235.62 126.654 233.734 127.012 233.376 127.639L232.65 128.898C232.65 128.898 228.421 129.888 227.249 131.148C226.078 132.407 225.99 132.952 226.083 134.998C226.138 136.34 226.578 139.948 227.183 143.798C229.61 144.291 232.127 144.103 234.454 143.253Z" fill="white" stroke="#263238" stroke-width="0.967197" stroke-linecap="round" stroke-linejoin="round"/>
<path d="M236.115 170.187C225.28 166.562 211.855 164.846 205.783 164.208C205.282 165.451 204.919 166.254 204.87 166.331C204.688 166.601 191.554 189.431 188.221 197.192C184.888 204.952 184.806 208.082 186.604 211.14C188.403 214.198 208.918 242.451 208.918 242.451C212.218 242.05 215.16 239.833 216.436 238.739C216.147 238.347 215.889 237.934 215.666 237.501C214.764 235.703 211.525 230.483 209.726 224.004C207.928 217.525 206.58 213.659 204.507 210.15C202.433 206.641 200.998 205.293 200.998 205.293C200.998 205.293 208.736 198.182 212.878 194.585C217.019 190.988 220.704 188.018 220.704 188.018C220.704 188.018 234.74 173.619 236 170.467C236.038 170.379 236.071 170.286 236.115 170.187Z" fill="#787878" stroke="#263238" stroke-width="0.967197" stroke-linecap="round" stroke-linejoin="round"/>
<path d="M216.436 238.739C215.402 240.697 211.079 244.431 211.079 244.431C211.079 244.431 209.979 243.26 209.369 242.451C208.89 241.841 208.725 241.995 208.67 242.11L208.918 242.451C208.918 242.451 203.418 248.749 200.91 250.371C198.402 251.994 195.25 252.258 196.35 253.611C197.45 254.964 204.716 255.497 206.696 255.046C208.676 254.595 213.175 250.646 215.782 248.842C218.389 247.038 220.732 245.779 219.742 243.529C218.944 241.786 217.476 240.202 216.436 238.739Z" fill="#E9CB30" stroke="#263238" stroke-width="0.967197" stroke-linecap="round" stroke-linejoin="round"/>
<path d="M205.227 253.968C203.363 254.452 198.374 253.418 196.152 252.868C196.105 252.992 196.096 253.128 196.126 253.257C196.156 253.386 196.225 253.504 196.323 253.594C197.423 254.941 204.688 255.48 206.668 255.029C208.648 254.578 213.147 250.629 215.754 248.825C218.361 247.021 220.704 245.762 219.714 243.512C219.599 243.254 219.467 242.995 219.324 242.742C218.856 243.369 218.306 244.073 217.734 244.772C216.117 246.768 207.658 253.335 205.227 253.968Z" fill="white" stroke="#263238" stroke-width="0.967197" stroke-linecap="round" stroke-linejoin="round"/>
<path d="M230.604 174.697C230.604 174.697 222.75 167.679 215.127 165.16C207.504 162.641 193.259 163.361 189.662 164.802C186.065 166.243 187.594 170.852 187.682 176.138C187.77 181.423 191.373 191.252 192.902 196.834C194.431 202.417 194.97 208.621 195.151 210.777C195.333 212.933 195.333 213.747 195.333 213.747C195.333 213.747 185.345 213.659 182.732 213.389C180.12 213.12 178.596 213.939 178.145 214.83C177.878 215.292 177.782 215.834 177.876 216.359C177.876 216.359 184.624 220.759 190.471 223.196C196.317 225.632 201.9 227.156 202.62 226.793C203.341 226.43 204.056 220.946 204.056 217.168C204.056 213.389 205.227 195.212 205.227 191.972V183.607C205.227 183.607 222.684 192.874 229.614 190.713C236.544 188.551 236.115 170.187 236.115 170.187L230.511 168.399" fill="#787878"/>
<path d="M230.604 174.697C230.604 174.697 222.75 167.679 215.127 165.16C207.504 162.641 193.259 163.361 189.662 164.802C186.065 166.243 187.594 170.852 187.682 176.138C187.77 181.423 191.373 191.252 192.902 196.834C194.431 202.417 194.97 208.621 195.151 210.777C195.333 212.933 195.333 213.747 195.333 213.747C195.333 213.747 185.345 213.659 182.732 213.389C180.12 213.12 178.596 213.939 178.145 214.83C177.878 215.292 177.782 215.834 177.876 216.359C177.876 216.359 184.624 220.759 190.471 223.196C196.317 225.632 201.9 227.156 202.62 226.793C203.341 226.43 204.056 220.946 204.056 217.168C204.056 213.389 205.227 195.212 205.227 191.972V183.607C205.227 183.607 222.684 192.874 229.614 190.713C236.544 188.551 236.115 170.187 236.115 170.187L230.511 168.399" stroke="#263238" stroke-width="0.967197" stroke-linecap="round" stroke-linejoin="round"/>
<path d="M195.333 213.747C195.333 213.747 185.345 213.659 182.732 213.389C180.12 213.12 178.596 213.939 178.145 214.83C177.878 215.292 177.782 215.834 177.876 216.359C177.876 216.359 184.624 220.759 190.471 223.196C196.317 225.632 201.9 227.156 202.62 226.793C203.253 226.479 203.885 222.189 204.028 218.587C200.321 215.43 195.333 213.747 195.333 213.747Z" fill="#E9CB30" stroke="#263238" stroke-width="0.967197" stroke-linecap="round" stroke-linejoin="round"/>
<path d="M202.62 226.792C202.901 226.655 203.17 225.692 203.423 224.416C200.283 224.187 197.193 223.503 194.249 222.387C189.162 220.467 180.873 216.436 178.046 215.044C177.856 215.455 177.796 215.914 177.876 216.359C177.876 216.359 184.624 220.759 190.471 223.195C196.317 225.632 201.9 227.15 202.62 226.792Z" fill="white" stroke="#263238" stroke-width="0.967197" stroke-linecap="round" stroke-linejoin="round"/>
<path d="M205.227 183.607C205.227 183.607 205.139 175.78 201.179 171.908" stroke="#263238" stroke-width="0.967197" stroke-linecap="round" stroke-linejoin="round"/>
<path d="M199.1 105.545C199.1 105.545 201.245 112.58 202.191 115.066C203.137 117.552 203.22 118.916 206.217 121.754C209.215 124.592 209.82 126.814 212.905 127.067C215.991 127.32 217.195 125.417 217.195 125.417C217.195 125.417 217.624 128.249 219.252 129.102C220.88 129.954 224.483 130.13 226.71 125.758C228.938 121.385 227.568 119.246 226.798 117.189C226.028 115.132 224.994 112.558 224.994 112.558C226.113 111.014 226.693 109.145 226.644 107.239C226.474 104.242 225.616 103.895 224.675 103.637C223.735 103.378 221.073 105.094 219.962 104.583C218.851 104.071 220.732 101.151 217.729 100.898C214.726 100.645 211.64 104.748 206.239 105.182C200.838 105.617 198.902 103.917 199.1 105.545Z" fill="white" stroke="#263238" stroke-width="0.967197" stroke-linecap="round" stroke-linejoin="round"/>
<path d="M217.167 125.438L222.051 119.938C224.196 117.54 224.196 113.938 224.196 113.938" fill="white"/>
<path d="M217.167 125.438L222.051 119.938C224.196 117.54 224.196 113.938 224.196 113.938" stroke="#263238" stroke-width="0.967197" stroke-linecap="round" stroke-linejoin="round"/>
<path d="M207.565 113.949C207.565 113.949 208.164 116.699 207.565 118.063C206.965 119.427 207.477 120.125 208.505 120.208C208.997 120.292 209.503 120.233 209.963 120.037" stroke="#263238" stroke-width="0.967197" stroke-linecap="round" stroke-linejoin="round"/>
<path d="M210.738 114.208C210.738 114.208 211.338 112.409 214.165 112.921" stroke="#263238" stroke-width="1.93439" stroke-linecap="round" stroke-linejoin="round"/>
<path d="M203.621 114.719C203.621 114.719 205.271 113.779 206.448 115.066" stroke="#263238" stroke-width="1.93439" stroke-linecap="round" stroke-linejoin="round"/>
<path d="M202.164 111.98C202.164 111.98 204.133 110.006 206.448 113.08" stroke="#263238" stroke-width="0.967197" stroke-linecap="round" stroke-linejoin="round"/>
<path d="M209.193 112.233C209.193 112.233 210.133 109.065 213.043 109.483" stroke="#263238" stroke-width="0.967197" stroke-linecap="round" stroke-linejoin="round"/>
<path d="M211.849 120.896C211.849 120.896 216.31 120.038 217.168 114.807C217.168 114.807 219.368 118.333 217.844 121.16C216.321 123.987 214.253 123.552 214.253 123.552L211.849 120.896Z" stroke="#263238" stroke-width="0.967197" stroke-linecap="round" stroke-linejoin="round"/>
<path d="M201.988 95.6011C201.988 95.6011 204.221 92.5156 201.735 92.9446C199.249 93.3736 195.135 98.1751 195.646 102.718C196.158 107.261 205.332 108.29 209.792 107.608C212.469 107.19 214.953 105.961 216.909 104.088C216.909 104.088 215.259 107.608 216.997 108.031C218.735 108.455 219.566 108.031 219.566 108.031C219.566 108.031 221.216 111.722 221.711 110.605C222.206 109.489 221.59 108.614 221.881 107.179C222.569 103.835 225.055 103.917 225.055 103.917C225.055 103.917 225.484 95.6011 222.398 92.3671C219.313 89.1331 211.25 88.7646 207.906 90.4806C204.562 92.1966 201.988 95.6011 201.988 95.6011Z" fill="#263238" stroke="#263238" stroke-width="0.967197" stroke-linecap="round" stroke-linejoin="round"/>
<path opacity="0.2" d="M72.5561 260.414C101.055 260.414 124.157 255.888 124.157 250.305C124.157 244.722 101.055 240.196 72.5561 240.196C44.0576 240.196 20.9551 244.722 20.9551 250.305C20.9551 255.888 44.0576 260.414 72.5561 260.414Z" fill="black"/>
<path d="M38.3075 239.195C38.3075 239.195 31.592 242.66 28.908 245.795C26.224 248.93 29.2435 251.053 34.727 249.266C40.2105 247.478 42.2235 239.756 42.2235 239.756C42.2235 239.756 40.3205 238.189 38.3075 239.195Z" fill="#E9CB30" stroke="#263238" stroke-width="0.967197" stroke-linecap="round" stroke-linejoin="round"/>
<path d="M109.588 239.195C109.588 239.195 116.303 242.66 118.987 245.795C121.671 248.93 118.652 251.053 113.168 249.266C107.685 247.478 105.672 239.756 105.672 239.756C105.672 239.756 107.575 238.189 109.588 239.195Z" fill="#E9CB30" stroke="#263238" stroke-width="0.967197" stroke-linecap="round" stroke-linejoin="round"/>
<path d="M67.2981 97.3005L67.2156 103.268C64.7192 102.686 62.2569 101.966 59.8401 101.112C55.8636 99.704 54.8901 100.947 52.5471 102.933C50.2041 104.918 39.1271 117.7 37.9501 118.762C36.7731 119.823 33.1431 125.362 33.1431 128.205C33.1431 131.049 35.3816 133.012 39.8531 130.609C44.3246 128.205 52.5306 121.743 52.5306 121.743C52.5306 121.743 56.7601 134.338 56.8426 136.494C56.9251 138.65 53.9386 143.369 52.3656 147.681C50.7926 151.993 50.0501 164.005 48.9831 168.146C47.9161 172.288 45.1716 176.6 43.0211 187.616C40.8706 198.633 40.7001 207.092 40.2051 209.242C39.7101 211.393 39.0501 219.604 38.2966 226.05C37.5431 232.496 37.0536 239.635 37.8841 240.383C38.7146 241.131 41.1126 241.626 42.2841 240.383C43.4556 239.14 52.1346 217.118 53.9001 212.064C55.6656 207.009 67.4081 184.135 68.4036 181.566C69.3991 178.998 71.1921 175.45 71.1921 175.45C71.1921 175.45 77.3246 186.885 79.3926 192.599C81.4606 198.314 92.8181 220.358 95.9696 226.149C99.1211 231.941 104.253 239.652 105.661 240.4C107.069 241.148 109.34 240.686 109.588 239.195C109.835 237.705 107.487 214.797 105.738 210.485C103.989 206.173 102.839 203.775 102.344 200.629C101.849 197.483 97.0366 171.71 94.8036 166.986C92.5706 162.261 92.2351 161.354 92.1526 161.101C92.0701 160.848 90.5026 155.304 88.1706 149.666C85.8386 144.029 83.2866 138.98 83.2866 138.98L87.5106 127.38C87.5106 127.38 93.7256 140.223 96.6241 142.956C99.5226 145.69 108.972 157.454 108.972 157.454L111.953 154.473L102.344 137.973C102.344 137.973 100.271 127.287 97.7846 120.571C95.2986 113.856 93.4781 108.889 90.2441 107.371C87.0101 105.853 80.0526 105.463 78.8096 104.968C77.5666 104.473 77.9791 104.055 77.8966 103.807C77.8141 103.56 78.3146 98.01 78.3146 98.01C78.3146 98.01 73.7001 99.6215 71.5001 98.956C70.065 98.4958 68.6614 97.9428 67.2981 97.3005Z" fill="#263238" stroke="#263238" stroke-width="0.967197" stroke-linecap="round" stroke-linejoin="round"/>
<path d="M85.1456 156.854L75.5701 169.268" stroke="#696969" stroke-width="0.967197" stroke-linecap="round" stroke-linejoin="round"/>
<path d="M54.6482 157.922L65.2907 168.916" stroke="#696969" stroke-width="0.967197" stroke-linecap="round" stroke-linejoin="round"/>
<path d="M56.4246 164.302L67.0616 171.039" stroke="#696969" stroke-width="0.967197" stroke-linecap="round" stroke-linejoin="round"/>
<path d="M83.2921 138.98L87.5161 127.38C87.5161 127.38 85.2776 111.65 81.0151 105.435C80.2713 105.353 79.5355 105.209 78.8151 105.006C77.5721 104.511 77.9846 104.093 77.9021 103.846C77.8196 103.598 78.3201 98.0485 78.3201 98.0485C78.3201 98.0485 73.7001 99.6215 71.5001 98.956C70.0578 98.4984 68.6468 97.9473 67.2761 97.306L67.1936 103.274C67.1936 103.274 66.0936 103.026 64.3776 102.553C62.5571 104.891 55.2036 114.587 52.5251 121.748C52.5251 121.748 56.7546 134.343 56.8371 136.499C56.8976 138.061 55.3466 140.965 53.8891 144.089C56.5896 145.899 61.4131 148.038 69.2891 148.181C78.7436 148.352 83.8146 146.174 86.0586 144.793C84.5296 141.416 83.2921 138.98 83.2921 138.98Z" fill="#E9CB30" stroke="#263238" stroke-width="0.967197" stroke-linecap="round" stroke-linejoin="round"/>
<path d="M77.6931 111.65C79.3431 110.044 79.8491 107.608 79.8216 105.237C79.4792 105.191 79.1422 105.112 78.8151 105.001C77.5721 104.506 77.9846 104.088 77.9021 103.84C77.8196 103.593 78.3201 98.043 78.3201 98.043C78.3201 98.043 73.7001 99.6215 71.5001 98.956C70.0577 98.4984 68.6467 97.9473 67.2761 97.306L67.1936 103.274C67.1936 103.274 66.8471 103.197 66.2476 103.048C65.7911 104.808 64.9111 109.544 67.7711 112.14C70.5211 114.604 75.1246 114.125 77.6931 111.65Z" fill="#B2B2B2" stroke="#263238" stroke-width="0.967197" stroke-linecap="round" stroke-linejoin="round"/>
<path d="M64.1465 102.438C64.1465 102.438 63.899 108.652 62.326 112.051C60.753 115.45 59.092 115.945 59.092 115.945C59.7538 116.365 60.4471 116.733 61.1655 117.045C62.491 117.595 62.7385 117.376 62.7385 117.376C62.7385 117.376 65.2245 115.802 66.385 111.655C67.0927 108.927 67.3729 106.105 67.2155 103.29L64.1465 102.438Z" fill="white" stroke="#263238" stroke-width="0.967197" stroke-linecap="round" stroke-linejoin="round"/>
<path d="M68.8105 70.6805C68.8105 70.6805 68.706 67.87 73.81 66.517C78.914 65.164 83.402 69.223 83.8145 71.9345C84.227 74.646 83.402 76.1035 82.775 76.3345C82.148 76.5655 79.442 73.832 75.3775 72.4845C71.313 71.137 68.288 71.9345 68.8105 70.6805Z" fill="#263238" stroke="#263238" stroke-width="0.967197" stroke-linecap="round" stroke-linejoin="round"/>
<path d="M63.5965 84.337C63.5965 84.337 62.975 82.4615 61.3965 83.6055C59.818 84.7495 60.5605 88.297 61.292 89.3365C62.0235 90.376 63.492 90.3815 63.789 89.65C64.086 88.9185 64.1025 84.7495 64.1025 84.7495" fill="#B2B2B2"/>
<path d="M63.5965 84.337C63.5965 84.337 62.975 82.4615 61.3965 83.6055C59.818 84.7495 60.5605 88.297 61.292 89.3365C62.0235 90.376 63.492 90.3815 63.789 89.65C64.086 88.9185 64.1025 84.7495 64.1025 84.7495" stroke="#263238" stroke-width="0.967197" stroke-linecap="round" stroke-linejoin="round"/>
<path d="M63.3932 75.2676C63.3932 75.2676 61.6167 77.8746 62.4527 80.4816C63.2887 83.0886 62.8707 84.9586 62.8707 87.9836C62.8707 91.0086 65.0707 95.0676 66.5172 97.5701C67.9637 100.073 70.8842 103.043 74.0082 102.108C77.1322 101.173 81.7082 94.6496 82.5662 91.6301C83.4242 88.6106 83.0887 87.8791 83.6057 86.6251C84.485 84.4055 84.9114 82.0324 84.8597 79.6456C84.8597 76.2081 80.7952 71.6211 75.7902 70.1636C70.7852 68.7061 65.2687 70.1636 63.3932 75.2676Z" fill="#B2B2B2" stroke="#263238" stroke-width="0.967197" stroke-linecap="round" stroke-linejoin="round"/>
<path d="M82.357 87.3565C82.357 87.3565 83.193 84.854 84.755 85.5855C86.317 86.317 85.69 90.1725 84.4415 91.3165C83.193 92.4605 81.8345 91.9435 81.8345 91.212" fill="#B2B2B2"/>
<path d="M82.357 87.3565C82.357 87.3565 83.193 84.854 84.755 85.5855C86.317 86.317 85.69 90.1725 84.4415 91.3165C83.193 92.4605 81.8345 91.9435 81.8345 91.212" stroke="#263238" stroke-width="0.967197" stroke-linecap="round" stroke-linejoin="round"/>
<path d="M70.5815 90.6896C71.0893 91.1939 71.7704 91.4855 72.4858 91.505C73.2013 91.5244 73.8971 91.2701 74.4315 90.7941" stroke="#263238" stroke-width="0.967197" stroke-linecap="round" stroke-linejoin="round"/>
<path d="M69.6685 93.126C69.6685 93.126 72.193 95.326 75.669 93.0765" stroke="#263238" stroke-width="0.967197" stroke-linecap="round" stroke-linejoin="round"/>
<path d="M68.9041 88.1706C69.3264 88.1706 69.6686 87.6165 69.6686 86.9331C69.6686 86.2496 69.3264 85.6956 68.9041 85.6956C68.4819 85.6956 68.1396 86.2496 68.1396 86.9331C68.1396 87.6165 68.4819 88.1706 68.9041 88.1706Z" fill="#263238"/>
<path d="M76.3346 88.1706C76.7568 88.1706 77.0991 87.6165 77.0991 86.9331C77.0991 86.2496 76.7568 85.6956 76.3346 85.6956C75.9123 85.6956 75.5701 86.2496 75.5701 86.9331C75.5701 87.6165 75.9123 88.1706 76.3346 88.1706Z" fill="#263238"/>
<path d="M66.8086 83.8861C67.3115 83.4363 67.9275 83.1321 68.5903 83.0061C69.2531 82.8801 69.9377 82.9371 70.5706 83.1711" stroke="#263238" stroke-width="0.967197" stroke-linecap="round" stroke-linejoin="round"/>
<path d="M74.4756 83.4571C74.4756 83.4571 77.2861 82.2196 78.8096 84.6946" stroke="#263238" stroke-width="0.967197" stroke-linecap="round" stroke-linejoin="round"/>
<path d="M75.7902 70.1635C70.7907 68.7005 65.2687 70.1635 63.3932 75.2675C63.3932 75.2675 61.6167 77.8745 62.4527 80.4815C62.7187 81.309 62.8812 82.1662 62.9367 83.0335L63.0797 83.1875C63.7043 82.4876 64.103 81.6154 64.2237 80.685C64.4327 79.123 67.8702 75.185 73.5022 75.581C79.1342 75.977 81.8347 79.981 82.3572 82.566C82.8797 85.151 81.5267 87.043 83.6057 86.625C84.485 84.4055 84.9114 82.0324 84.8597 79.6455C84.8597 76.208 80.7952 71.621 75.7902 70.1635Z" fill="#263238" stroke="#263238" stroke-width="0.967197" stroke-linecap="round" stroke-linejoin="round"/>
<path d="M111.958 154.473L117.343 155.573C117.777 155.659 118.167 155.897 118.443 156.244C119.35 157.383 121.385 159.995 121.578 160.765C121.825 161.761 121.825 162.008 121.495 162.008C121.05 161.989 120.606 161.934 120.17 161.843C119.752 161.761 118.179 159.522 116.936 159.44C115.72 159.254 114.526 158.948 113.372 158.527C113.372 158.527 116.023 160.518 116.606 161.013C117.189 161.508 117.101 161.761 116.688 161.926C116.276 162.091 115.693 161.843 115.115 161.596C114.538 161.348 114.285 161.26 112.294 160.435C110.303 159.61 108.994 157.449 108.994 157.449L111.958 154.473Z" fill="#B2B2B2" stroke="#263238" stroke-width="0.967197" stroke-linecap="round" stroke-linejoin="round"/>
<path d="M90.8326 118.514L87.5161 127.38L90.4971 122.078" stroke="#696969" stroke-width="0.967197" stroke-linecap="round" stroke-linejoin="round"/>
<path d="M52.5471 111.964V121.743L50.8916 114.62" stroke="#696969" stroke-width="0.967197" stroke-linecap="round" stroke-linejoin="round"/>
<path d="M68.9535 118.596C69.3848 118.893 69.8727 119.097 70.3865 119.197C70.9004 119.296 71.4292 119.288 71.94 119.174C73.59 118.761 78.067 115.527 80.806 111.881C83.545 108.234 84.7825 106.15 84.7825 106.15L80.3825 104.824C80.3825 104.824 78.0615 111.122 74.998 113.855C71.9345 116.589 67.375 117.914 67.375 117.914L68.9535 118.596Z" fill="white" stroke="#263238" stroke-width="0.967197" stroke-linecap="round" stroke-linejoin="round"/>
<path d="M48.488 89.0121C48.488 89.0121 68.046 118.096 68.9535 118.597C69.3839 118.839 69.8263 119.059 70.279 119.257C70.279 119.257 65.6425 119.257 64.317 118.157C62.9915 117.057 52.382 97.3611 51.469 95.2051C50.7316 93.5589 49.9016 91.9559 48.983 90.4036L48.158 88.8251L48.488 89.0121Z" fill="white" stroke="#263238" stroke-width="0.967197" stroke-linecap="round" stroke-linejoin="round"/>
<path d="M48.488 89.012C48.488 89.012 56.6115 112.381 57.288 114.037C57.9645 115.692 60.269 117.023 61.512 117.188L62.755 117.353C62.755 117.353 56.8755 107.739 54.307 101.953C51.7385 96.1675 48.488 89.012 48.488 89.012Z" fill="white" stroke="#263238" stroke-width="0.967197" stroke-linecap="round" stroke-linejoin="round"/>
<path d="M46.2936 90.013C49.1094 90.013 51.3921 87.7304 51.3921 84.9145C51.3921 82.0987 49.1094 79.816 46.2936 79.816C43.4777 79.816 41.1951 82.0987 41.1951 84.9145C41.1951 87.7304 43.4777 90.013 46.2936 90.013Z" fill="white" stroke="#263238" stroke-width="0.967197" stroke-linecap="round" stroke-linejoin="round"/>
<path d="M41.5307 129.613C38.8797 131.027 33.6547 134.338 32.6647 132.847C31.6747 131.357 31.8342 122.903 34.2377 117.849C36.6412 112.794 40.9752 103.758 41.1127 102.207C41.2502 100.656 40.9037 90.376 41.0467 89.9525C41.1897 89.529 45.4797 87.2025 45.4797 87.2025C45.7056 87.1468 45.9434 87.1642 46.1588 87.2521C46.3743 87.3401 46.5563 87.4941 46.6787 87.692C47.1022 88.396 49.0052 90.442 48.9337 90.992C48.8622 91.542 48.7907 91.9765 48.7907 91.9765C48.7907 91.9765 49.9182 92.6145 49.6377 93.6705C49.3572 94.7265 48.8622 97.966 48.2297 98.3895C47.7034 98.6436 47.108 98.7171 46.5357 98.5985C46.4649 99.3651 46.2503 100.111 45.9032 100.799C45.4137 101.574 44.9187 101.998 44.8472 102.207C44.7757 102.416 43.2687 126.797 42.4382 127.628" fill="#263238"/>
<path d="M41.5307 129.613C38.8797 131.027 33.6547 134.338 32.6647 132.847C31.6747 131.357 31.8342 122.903 34.2377 117.849C36.6412 112.794 40.9752 103.758 41.1127 102.207C41.2502 100.656 40.9037 90.376 41.0467 89.9525C41.1897 89.529 45.4797 87.2025 45.4797 87.2025C45.7056 87.1468 45.9434 87.1642 46.1588 87.2521C46.3743 87.3401 46.5563 87.4941 46.6787 87.692C47.1022 88.396 49.0052 90.442 48.9337 90.992C48.8622 91.542 48.7907 91.9765 48.7907 91.9765C48.7907 91.9765 49.9182 92.6145 49.6377 93.6705C49.3572 94.7265 48.8622 97.966 48.2297 98.3895C47.7034 98.6436 47.108 98.7171 46.5357 98.5985C46.4649 99.3651 46.2503 100.111 45.9032 100.799C45.4137 101.574 44.9187 101.998 44.8472 102.207C44.7757 102.416 43.2687 126.797 42.4382 127.628" stroke="#263238" stroke-width="0.967197" stroke-linecap="round" stroke-linejoin="round"/>
<path d="M48.7906 91.993C48.7906 91.993 48.8621 91.575 48.9336 91.0085C49.0051 90.442 47.1021 88.4015 46.6786 87.7085C46.5562 87.5106 46.3742 87.3566 46.1588 87.2686C45.9433 87.1807 45.7055 87.1633 45.4796 87.219C45.4796 87.219 41.1841 89.54 41.0466 89.969C40.9091 90.398 41.1896 98.7415 41.1456 101.519C41.6543 101.933 42.2545 102.22 42.8963 102.356C43.5382 102.492 44.2032 102.473 44.8361 102.3C44.8361 102.251 44.8361 102.218 44.8361 102.207C44.9076 101.998 45.3861 101.574 45.8921 100.799C46.2393 100.111 46.4538 99.3651 46.5246 98.5985C47.0969 98.7171 47.6923 98.6436 48.2186 98.3895C48.8511 97.966 49.3186 94.7265 49.6266 93.6705C49.9346 92.6145 48.7906 91.993 48.7906 91.993Z" fill="#B2B2B2" stroke="#263238" stroke-width="0.967197" stroke-linecap="round" stroke-linejoin="round"/>
<path d="M48.7905 91.993L45.199 90.585" stroke="#263238" stroke-width="0.967197" stroke-linecap="round" stroke-linejoin="round"/>
<path d="M44.7756 92.5596C44.7756 92.5596 48.5101 93.4011 48.8621 93.9676C49.0822 94.3537 49.2031 94.7883 49.2141 95.2326" stroke="#263238" stroke-width="0.967197" stroke-linecap="round" stroke-linejoin="round"/>
<path d="M44.99 94.6C44.99 94.6 47.806 95.2325 48.2295 95.5845C48.653 95.9365 48.719 97.416 48.719 97.416" stroke="#263238" stroke-width="0.967197" stroke-linecap="round" stroke-linejoin="round"/>
<path d="M46.5356 98.615V97.4875L47.3111 97.416" stroke="#263238" stroke-width="0.967197" stroke-linecap="round" stroke-linejoin="round"/>
<path d="M68.871 148.759L67.8755 162.344L69.454 162.591C69.454 162.591 69.454 148.258 68.871 148.759Z" fill="white" stroke="#263238" stroke-width="0.967197" stroke-linecap="round" stroke-linejoin="round"/>
<path d="M69.8501 149.253L70.3451 164.334L72.8311 164.252L70.4276 149.402C70.4276 149.402 70.0316 148.01 69.8501 149.253Z" fill="white" stroke="#263238" stroke-width="0.967197" stroke-linecap="round" stroke-linejoin="round"/>
<path d="M112.106 28.446L114.933 31.2455L116.495 28.765L112.106 28.446Z" fill="#9C9C9C"/>
<path d="M76.7139 33.1486L79.5409 35.9426L81.1029 33.4621L76.7139 33.1486Z" fill="#9C9C9C"/>
<path d="M54.4609 21.7635L57.2879 24.563L58.8499 22.077L54.4609 21.7635Z" fill="#9C9C9C"/>
<path d="M144.012 43.505L142.235 47.0635L145.079 47.773L144.012 43.505Z" fill="#9C9C9C"/>
<path d="M171.121 18.3151L169.345 21.8736L172.188 22.5831L171.121 18.3151Z" fill="#9C9C9C"/>
<path d="M112.316 49.39L109.549 46.53L107.938 48.9775L112.316 49.39Z" fill="#E9CB30"/>
<path d="M96.1014 50.4516L93.3404 47.5916L91.7234 50.0391L96.1014 50.4516Z" fill="#E9CB30"/>
<path d="M131.032 37.7081L134.266 35.3926L132.082 33.4346L131.032 37.7081Z" fill="#E9CB30"/>
<path d="M94.6165 26.1855L97.8505 23.8755L95.667 21.912L94.6165 26.1855Z" fill="#E9CB30"/>
<path d="M156.519 46.7995L159.753 44.4895L157.57 42.526L156.519 46.7995Z" fill="#E9CB30"/>
<path d="M27.0543 48.708L25.2778 52.261L28.1213 52.976L27.0543 48.708Z" fill="#9C9C9C"/>
<path d="M45.1273 51.3645L43.3508 54.923L46.1943 55.6325L45.1273 51.3645Z" fill="#9C9C9C"/>
<path d="M35.2275 39.171L32.461 36.311L30.844 38.7585L35.2275 39.171Z" fill="#E9CB30"/>
<path d="M111.051 67.2265L114.29 64.9165L112.107 62.953L111.051 67.2265Z" fill="#E9CB30"/>
<path d="M197.224 39.4955L200.051 42.2895L201.613 39.809L197.224 39.4955Z" fill="#9C9C9C"/>
<path d="M229.136 46.7555L227.354 50.314L230.203 51.0235L229.136 46.7555Z" fill="#9C9C9C"/>
<path d="M186.076 27.9401L184.299 31.4986L187.143 32.2136L186.076 27.9401Z" fill="#9C9C9C"/>
<path d="M247.209 49.412L245.427 52.9705L248.276 53.6855L247.209 49.412Z" fill="#9C9C9C"/>
<path d="M256.245 35.86L254.463 39.4185L257.312 40.128L256.245 35.86Z" fill="#9C9C9C"/>
<path d="M197.439 52.635L194.672 49.775L193.055 52.228L197.439 52.635Z" fill="#E9CB30"/>
<path d="M181.225 53.702L178.458 50.842L176.841 53.2895L181.225 53.702Z" fill="#E9CB30"/>
<path d="M215.616 26.675L218.85 24.365L216.667 22.4015L215.616 26.675Z" fill="#E9CB30"/>
<path d="M179.74 22.9405L182.974 20.625L180.79 18.667L179.74 22.9405Z" fill="#E9CB30"/>
<path d="M233.161 31.2236L236.395 28.9136L234.212 26.9556L233.161 31.2236Z" fill="#E9CB30"/>
<path d="M196.174 70.477L199.408 68.1615L197.224 66.2035L196.174 70.477Z" fill="#E9CB30"/>
<path d="M64.9219 46.7885L68.1559 44.4785L65.9724 42.515L64.9219 46.7885Z" fill="#E9CB30"/>
<path d="M170.483 89.6115L167.656 86.812L166.094 89.2925L170.483 89.6115Z" fill="#9C9C9C"/>
<path d="M197.857 87.747L195.03 84.953L193.468 87.4335L197.857 87.747Z" fill="#9C9C9C"/>
<path d="M229.003 91.2945L226.176 88.495L224.615 90.981L229.003 91.2945Z" fill="#9C9C9C"/>
<path d="M138.572 82.346L140.354 78.7875L137.505 78.078L138.572 82.346Z" fill="#9C9C9C"/>
<path d="M120.499 79.6895L122.281 76.131L119.432 75.4215L120.499 79.6895Z" fill="#9C9C9C"/>
<path d="M209.875 86.0365L212.641 88.8965L214.258 86.4435L209.875 86.0365Z" fill="#E9CB30"/>
<path d="M130.971 80.7675L127.737 83.0775L129.921 85.0355L130.971 80.7675Z" fill="#E9CB30"/>
<path d="M132.567 68.0076L129.333 70.3231L131.516 72.2811L132.567 68.0076Z" fill="#E9CB30"/>
<path d="M255.535 77.1485L257.312 73.59L254.463 72.8805L255.535 77.1485Z" fill="#9C9C9C"/>
<path d="M237.457 74.492L239.239 70.9335L236.39 70.224L237.457 74.492Z" fill="#9C9C9C"/>
<path d="M247.929 75.5699L244.695 77.88L246.878 79.838L247.929 75.5699Z" fill="#E9CB30"/>
<path d="M94.5008 68.1561L91.6738 65.3566L90.1118 67.8426L94.5008 68.1561Z" fill="#9C9C9C"/>
<path d="M53.4545 79.0955L55.231 75.5425L52.3875 74.8275L53.4545 79.0955Z" fill="#9C9C9C"/>
<path d="M35.3815 76.439L37.158 72.8805L34.3145 72.171L35.3815 76.439Z" fill="#9C9C9C"/>
<path d="M26.3448 89.9965L28.1213 86.438L25.2778 85.7285L26.3448 89.9965Z" fill="#9C9C9C"/>
<path d="M45.2815 88.6326L48.048 91.4926L49.665 89.0451L45.2815 88.6326Z" fill="#E9CB30"/>
<path d="M102.85 88.6215L99.616 90.937L101.799 92.895L102.85 88.6215Z" fill="#E9CB30"/>
<path d="M47.4485 64.757L44.209 67.0725L46.3925 69.0305L47.4485 64.757Z" fill="#E9CB30"/>
<path d="M212.465 66.0715L209.231 68.3815L211.414 70.3395L212.465 66.0715Z" fill="#E9CB30"/>
<path d="M84.7275 103.081L87.5545 105.881L89.1165 103.4L84.7275 103.081Z" fill="#9C9C9C"/>
<path d="M53.5808 99.5391L56.4078 102.333L57.9698 99.8526L53.5808 99.5391Z" fill="#9C9C9C"/>
<path d="M144.012 108.482L142.235 112.041L145.079 112.75L144.012 108.482Z" fill="#9C9C9C"/>
<path d="M58.9105 127.056L57.134 130.614L59.9775 131.324L58.9105 127.056Z" fill="#9C9C9C"/>
<path d="M112.316 114.367L109.549 111.507L107.938 113.954L112.316 114.367Z" fill="#E9CB30"/>
<path d="M96.1014 115.428L93.3404 112.568L91.7234 115.016L96.1014 115.428Z" fill="#E9CB30"/>
<path d="M72.7155 104.797L69.949 101.937L68.332 104.385L72.7155 104.797Z" fill="#E9CB30"/>
<path d="M152.185 98.9506L149.419 96.0906L147.802 98.5381L152.185 98.9506Z" fill="#E9CB30"/>
<path d="M131.032 102.685L134.266 100.37L132.082 98.4115L131.032 102.685Z" fill="#E9CB30"/>
<path d="M151.618 110.066L154.852 107.75L152.669 105.792L151.618 110.066Z" fill="#E9CB30"/>
<path d="M150.023 122.826L153.257 120.51L151.074 118.552L150.023 122.826Z" fill="#E9CB30"/>
<path d="M27.0543 113.68L25.2778 117.238L28.1213 117.953L27.0543 113.68Z" fill="#9C9C9C"/>
<path d="M45.1273 116.342L43.3508 119.9L46.1943 120.61L45.1273 116.342Z" fill="#9C9C9C"/>
<path d="M35.2275 104.148L32.461 101.288L30.844 103.735L35.2275 104.148Z" fill="#E9CB30"/>
<path d="M34.6609 115.263L37.8949 112.948L35.7114 110.99L34.6609 115.263Z" fill="#E9CB30"/>
<path d="M111.051 132.204L114.29 129.888L112.107 127.93L111.051 132.204Z" fill="#E9CB30"/>
<path d="M169.851 106.332L172.678 109.131L174.24 106.645L169.851 106.332Z" fill="#9C9C9C"/>
<path d="M229.136 111.733L227.354 115.291L230.203 116.001L229.136 111.733Z" fill="#9C9C9C"/>
<path d="M247.209 114.389L245.427 117.948L248.276 118.663L247.209 114.389Z" fill="#9C9C9C"/>
<path d="M256.245 100.837L254.463 104.396L257.312 105.105L256.245 100.837Z" fill="#9C9C9C"/>
<path d="M181.225 118.679L178.458 115.819L176.841 118.266L181.225 118.679Z" fill="#E9CB30"/>
<path d="M175.862 180.285L173.096 177.425L171.484 179.872L175.862 180.285Z" fill="#E9CB30"/>
<path d="M144.386 19.9815L147.62 17.666L145.436 15.708L144.386 19.9815Z" fill="#E9CB30"/>
<path d="M196.174 135.454L199.408 133.139L197.224 131.181L196.174 135.454Z" fill="#E9CB30"/>
<path d="M70.1194 124.762L73.3589 122.447L71.1754 120.489L70.1194 124.762Z" fill="#E9CB30"/>
<path d="M197.857 152.724L195.03 149.93L193.468 152.411L197.857 152.724Z" fill="#9C9C9C"/>
<path d="M138.572 147.323L140.354 143.765L137.505 143.055L138.572 147.323Z" fill="#9C9C9C"/>
<path d="M120.499 144.667L122.281 141.108L119.432 140.399L120.499 144.667Z" fill="#9C9C9C"/>
<path d="M170.269 141.443L173.036 144.303L174.653 141.856L170.269 141.443Z" fill="#E9CB30"/>
<path d="M186.483 140.382L189.249 143.242L190.866 140.789L186.483 140.382Z" fill="#E9CB30"/>
<path d="M209.875 191.917L212.641 194.777L214.258 192.329L209.875 191.917Z" fill="#E9CB30"/>
<path d="M151.558 153.125L148.324 155.441L150.507 157.399L151.558 153.125Z" fill="#E9CB30"/>
<path d="M132.567 132.984L129.333 135.3L131.516 137.258L132.567 132.984Z" fill="#E9CB30"/>
<path d="M255.535 183.034L257.312 179.476L254.463 178.766L255.535 183.034Z" fill="#9C9C9C"/>
<path d="M237.457 139.469L239.239 135.911L236.39 135.201L237.457 139.469Z" fill="#9C9C9C"/>
<path d="M247.929 181.451L244.695 183.766L246.878 185.724L247.929 181.451Z" fill="#E9CB30"/>
<path d="M171.534 123.602L168.3 125.917L170.483 127.875L171.534 123.602Z" fill="#E9CB30"/>
<path d="M112.739 149.479L109.912 146.679L108.35 149.16L112.739 149.479Z" fill="#9C9C9C"/>
<path d="M53.4545 144.073L55.231 140.52L52.3875 139.805L53.4545 144.073Z" fill="#9C9C9C"/>
<path d="M96.514 148.594L98.2905 145.035L95.447 144.326L96.514 148.594Z" fill="#9C9C9C"/>
<path d="M35.3815 141.416L37.158 137.863L34.3145 137.148L35.3815 141.416Z" fill="#9C9C9C"/>
<path d="M26.3448 154.974L28.1213 151.415L25.2778 150.706L26.3448 154.974Z" fill="#9C9C9C"/>
<path d="M101.365 137.131L104.131 139.991L105.743 137.544L101.365 137.131Z" fill="#E9CB30"/>
<path d="M45.2815 153.609L48.048 156.469L49.665 154.022L45.2815 153.609Z" fill="#E9CB30"/>
<path d="M66.4398 149.875L63.2058 152.19L65.3893 154.148L66.4398 149.875Z" fill="#E9CB30"/>
<path d="M77.2364 208.467L74.0024 210.782L76.1859 212.74L77.2364 208.467Z" fill="#E9CB30"/>
<path d="M140.673 182.061L137.439 184.377L139.623 186.335L140.673 182.061Z" fill="#E9CB30"/>
<path d="M212.465 131.043L209.231 133.358L211.414 135.316L212.465 131.043Z" fill="#E9CB30"/>
<path d="M112.106 212.597L114.933 215.396L116.495 212.91L112.106 212.597Z" fill="#9C9C9C"/>
<path d="M51.645 187.396L54.472 190.19L56.034 187.71L51.645 187.396Z" fill="#9C9C9C"/>
<path d="M144.012 219.857L142.235 223.415L145.079 224.125L144.012 219.857Z" fill="#9C9C9C"/>
<path d="M100.958 169.593L99.176 173.151L102.025 173.861L100.958 169.593Z" fill="#9C9C9C"/>
<path d="M162.085 222.519L160.308 226.072L163.152 226.787L162.085 222.519Z" fill="#9C9C9C"/>
<path d="M171.121 208.961L169.345 212.52L172.188 213.229L171.121 208.961Z" fill="#9C9C9C"/>
<path d="M112.316 225.742L109.549 222.882L107.938 225.33L112.316 225.742Z" fill="#E9CB30"/>
<path d="M70.774 192.654L68.013 189.794L66.396 192.241L70.774 192.654Z" fill="#E9CB30"/>
<path d="M131.032 214.06L134.266 211.745L132.082 209.787L131.032 214.06Z" fill="#E9CB30"/>
<path d="M150.023 234.201L153.257 231.885L151.074 229.927L150.023 234.201Z" fill="#E9CB30"/>
<path d="M25.1184 201.537L23.3364 205.095L26.1854 205.805L25.1184 201.537Z" fill="#9C9C9C"/>
<path d="M43.1915 204.193L41.415 207.752L44.2585 208.467L43.1915 204.193Z" fill="#9C9C9C"/>
<path d="M33.286 192.005L30.525 189.145L28.908 191.593L33.286 192.005Z" fill="#E9CB30"/>
<path d="M111.051 247.489L114.29 245.179L112.107 243.216L111.051 247.489Z" fill="#E9CB30"/>
<path d="M197.224 170.099L200.051 172.898L201.613 170.412L197.224 170.099Z" fill="#9C9C9C"/>
<path d="M229.136 218.268L227.354 221.826L230.203 222.536L229.136 218.268Z" fill="#9C9C9C"/>
<path d="M186.076 172.843L184.299 176.402L187.143 177.111L186.076 172.843Z" fill="#9C9C9C"/>
<path d="M247.209 220.924L245.427 224.483L248.276 225.192L247.209 220.924Z" fill="#9C9C9C"/>
<path d="M256.245 207.372L254.463 210.925L257.312 211.64L256.245 207.372Z" fill="#9C9C9C"/>
<path d="M181.225 230.049L178.458 227.194L176.841 229.642L181.225 230.049Z" fill="#E9CB30"/>
<path d="M237.303 208.731L234.542 205.871L232.925 208.318L237.303 208.731Z" fill="#E9CB30"/>
<path d="M216.15 212.465L219.384 210.149L217.2 208.191L216.15 212.465Z" fill="#E9CB30"/>
<path d="M235.141 232.606L238.375 230.291L236.192 228.333L235.141 232.606Z" fill="#E9CB30"/>
<path d="M196.174 250.74L199.408 248.424L197.224 246.466L196.174 250.74Z" fill="#E9CB30"/>
<path d="M57.6619 228.492L60.8959 226.177L58.7124 224.219L57.6619 228.492Z" fill="#E9CB30"/>
<path d="M112.106 255.024L114.933 255.623L116.495 255.09L112.106 255.024Z" fill="#9C9C9C"/>
<path d="M84.7275 243.788L87.5545 244.393L89.1165 243.859L84.7275 243.788Z" fill="#9C9C9C"/>
<path d="M53.5808 243.029L56.4078 243.628L57.9698 243.095L53.5808 243.029Z" fill="#9C9C9C"/>
<path d="M144.012 244.948L142.235 245.713L145.079 245.867L144.012 244.948Z" fill="#9C9C9C"/>
<path d="M100.958 243.98L99.176 244.744L102.025 244.898L100.958 243.98Z" fill="#9C9C9C"/>
<path d="M162.085 245.52L160.308 246.285L163.152 246.439L162.085 245.52Z" fill="#9C9C9C"/>
<path d="M171.121 242.611L169.345 243.375L172.188 243.529L171.121 242.611Z" fill="#9C9C9C"/>
<path d="M105.006 253.495L102.245 252.879L100.628 253.407L105.006 253.495Z" fill="#E9CB30"/>
<path d="M96.1014 246.439L93.3404 245.828L91.7234 246.351L96.1014 246.439Z" fill="#E9CB30"/>
<path d="M72.7155 244.156L69.949 243.545L68.332 244.068L72.7155 244.156Z" fill="#E9CB30"/>
<path d="M152.185 242.902L149.419 242.292L147.802 242.814L152.185 242.902Z" fill="#E9CB30"/>
<path d="M131.032 243.705L134.266 243.21L132.082 242.787L131.032 243.705Z" fill="#E9CB30"/>
<path d="M94.6165 242.908L97.8505 242.407L95.667 241.989L94.6165 242.908Z" fill="#E9CB30"/>
<path d="M151.618 245.289L154.852 244.794L152.669 244.371L151.618 245.289Z" fill="#E9CB30"/>
<path d="M150.023 248.028L153.257 247.533L151.074 247.11L150.023 248.028Z" fill="#E9CB30"/>
<path d="M27.0543 246.064L25.2778 246.829L28.1213 246.983L27.0543 246.064Z" fill="#9C9C9C"/>
<path d="M45.1273 246.636L43.3508 247.401L46.1943 247.555L45.1273 246.636Z" fill="#9C9C9C"/>
<path d="M28.4074 252.428L25.6409 251.817L24.0239 252.345L28.4074 252.428Z" fill="#E9CB30"/>
<path d="M40.656 253.88L43.89 253.385L41.7065 252.961L40.656 253.88Z" fill="#E9CB30"/>
<path d="M33.0659 249.145L36.2999 248.65L34.1164 248.226L33.0659 249.145Z" fill="#E9CB30"/>
<path d="M111.051 250.041L114.29 249.546L112.107 249.123L111.051 250.041Z" fill="#E9CB30"/>
<path d="M197.224 244.09L200.051 244.69L201.613 244.156L197.224 244.09Z" fill="#9C9C9C"/>
<path d="M169.851 244.486L172.678 245.091L174.24 244.558L169.851 244.486Z" fill="#9C9C9C"/>
<path d="M229.136 245.646L227.354 246.411L230.203 246.565L229.136 245.646Z" fill="#9C9C9C"/>
<path d="M186.076 244.678L184.299 245.443L187.143 245.591L186.076 244.678Z" fill="#9C9C9C"/>
<path d="M247.209 246.219L245.427 246.983L248.276 247.137L247.209 246.219Z" fill="#9C9C9C"/>
<path d="M150.755 252.961L148.979 253.726L151.822 253.88L150.755 252.961Z" fill="#9C9C9C"/>
<path d="M256.245 243.309L254.463 244.074L257.312 244.228L256.245 243.309Z" fill="#9C9C9C"/>
<path d="M197.439 246.911L194.672 246.295L193.055 246.823L197.439 246.911Z" fill="#E9CB30"/>
<path d="M181.225 247.137L178.458 246.527L176.841 247.049L181.225 247.137Z" fill="#E9CB30"/>
<path d="M248.759 253.583L245.998 252.967L244.381 253.495L248.759 253.583Z" fill="#E9CB30"/>
<path d="M237.303 243.601L234.542 242.985L232.925 243.513L237.303 243.601Z" fill="#E9CB30"/>
<path d="M216.15 244.404L219.384 243.903L217.2 243.485L216.15 244.404Z" fill="#E9CB30"/>
<path d="M179.74 243.606L182.974 243.106L180.79 242.688L179.74 243.606Z" fill="#E9CB30"/>
<path d="M236.736 245.988L239.97 245.493L237.787 245.069L236.736 245.988Z" fill="#E9CB30"/>
<path d="M235.141 248.727L238.375 248.232L236.192 247.808L235.141 248.727Z" fill="#E9CB30"/>
<path d="M215.457 257.906L213.675 258.67L216.524 258.824L215.457 257.906Z" fill="#9C9C9C"/>
<path d="M233.53 258.478L231.753 259.243L234.597 259.397L233.53 258.478Z" fill="#9C9C9C"/>
<path d="M223.624 255.86L220.863 255.244L219.246 255.772L223.624 255.86Z" fill="#E9CB30"/>
<path d="M223.058 258.247L226.292 257.752L224.108 257.329L223.058 258.247Z" fill="#E9CB30"/>
<path d="M221.463 260.986L224.697 260.491L222.513 260.067L221.463 260.986Z" fill="#E9CB30"/>
<path d="M169.389 256.542L172.623 256.042L170.439 255.624L169.389 256.542Z" fill="#E9CB30"/>
<path d="M70.1194 248.446L73.3589 247.946L71.1754 247.528L70.1194 248.446Z" fill="#E9CB30"/>
<path d="M60.72 252.362L63.547 252.962L65.109 252.428L60.72 252.362Z" fill="#9C9C9C"/>
<path d="M72.0938 255.013L69.3328 254.403L67.7158 254.925L72.0938 255.013Z" fill="#E9CB30"/>
<path d="M48.708 252.73L45.9415 252.115L44.3245 252.642L48.708 252.73Z" fill="#E9CB30"/>
<path d="M46.1118 257.021L49.3513 256.52L47.1678 256.102L46.1118 257.021Z" fill="#E9CB30"/>
</svg>
