<svg width="166" height="147" viewBox="0 0 166 147" fill="none" xmlns="http://www.w3.org/2000/svg">
<path d="M94.3229 133.791C94.6593 134.215 94.8423 134.741 94.8423 135.283C94.8423 135.825 94.6593 136.351 94.3229 136.776H115.724L116.357 135.147L115.543 133.7L94.3229 133.791Z" fill="white"/>
<path d="M115.724 136.95H94.323C94.2912 136.95 94.2599 136.942 94.2328 136.925C94.2057 136.908 94.1838 136.884 94.1699 136.856C94.153 136.829 94.1439 136.797 94.1439 136.765C94.1439 136.733 94.153 136.702 94.1699 136.675C94.4891 136.281 94.6634 135.79 94.6634 135.283C94.6634 134.776 94.4891 134.285 94.1699 133.891C94.1493 133.865 94.1361 133.834 94.1318 133.801C94.1275 133.768 94.1323 133.734 94.1456 133.703C94.1594 133.674 94.1815 133.648 94.2092 133.63C94.2369 133.612 94.2692 133.603 94.3021 133.603L115.526 133.512C115.556 133.511 115.587 133.518 115.613 133.534C115.64 133.549 115.661 133.572 115.675 133.599L116.489 135.05C116.501 135.072 116.507 135.098 116.507 135.123C116.507 135.148 116.501 135.174 116.489 135.196L115.856 136.828C115.848 136.858 115.831 136.886 115.807 136.908C115.784 136.929 115.755 136.944 115.724 136.95ZM94.6431 136.602H115.592L116.152 135.161L115.428 133.874L94.6361 133.964C94.879 134.361 95.0081 134.817 95.0094 135.282C95.0106 135.747 94.8839 136.204 94.6431 136.602Z" fill="#263238"/>
<path d="M115.724 136.703V133.989H95.6311V133.293H122.362C122.638 133.281 122.914 133.326 123.172 133.424C123.43 133.522 123.666 133.671 123.866 133.862C124.065 134.053 124.223 134.283 124.332 134.537C124.44 134.791 124.496 135.064 124.496 135.34C124.496 135.617 124.44 135.89 124.332 136.144C124.223 136.398 124.065 136.628 123.866 136.819C123.666 137.01 123.43 137.159 123.172 137.257C122.914 137.355 122.638 137.399 122.362 137.388H95.6311V136.692L115.724 136.703Z" fill="white"/>
<path d="M122.362 137.559H95.6311C95.585 137.559 95.5407 137.54 95.5081 137.508C95.4755 137.475 95.4572 137.431 95.4572 137.385V136.689C95.4572 136.643 95.4755 136.598 95.5081 136.566C95.5407 136.533 95.585 136.515 95.6311 136.515H115.55V134.131H95.6311C95.585 134.131 95.5407 134.113 95.5081 134.08C95.4755 134.048 95.4572 134.004 95.4572 133.957V133.262C95.4572 133.216 95.4755 133.171 95.5081 133.139C95.5407 133.106 95.585 133.088 95.6311 133.088H122.362C122.661 133.076 122.96 133.125 123.24 133.231C123.519 133.337 123.775 133.499 123.991 133.706C124.207 133.914 124.378 134.163 124.496 134.438C124.613 134.714 124.673 135.01 124.673 135.309C124.673 135.609 124.613 135.905 124.496 136.18C124.378 136.456 124.207 136.705 123.991 136.912C123.775 137.119 123.519 137.281 123.24 137.388C122.96 137.494 122.661 137.543 122.362 137.531V137.559ZM95.8051 137.211H122.362C122.615 137.221 122.867 137.181 123.104 137.092C123.341 137.003 123.557 136.866 123.74 136.691C123.923 136.516 124.068 136.306 124.168 136.073C124.267 135.841 124.318 135.59 124.318 135.337C124.318 135.084 124.267 134.833 124.168 134.601C124.068 134.368 123.923 134.158 123.74 133.983C123.557 133.808 123.341 133.671 123.104 133.582C122.867 133.493 122.615 133.453 122.362 133.463H95.8051V133.811H115.724C115.77 133.811 115.814 133.83 115.847 133.862C115.879 133.895 115.898 133.939 115.898 133.985V136.717C115.898 136.763 115.879 136.807 115.847 136.84C115.814 136.872 115.77 136.89 115.724 136.89H95.8051V137.211Z" fill="#263238"/>
<path d="M115.724 135.339C115.724 134.976 115.58 134.628 115.323 134.372C115.067 134.116 114.719 133.971 114.357 133.971H93.5089V133.276H114.732C114.99 133.276 115.246 133.327 115.484 133.425C115.722 133.524 115.939 133.669 116.121 133.852C116.303 134.034 116.448 134.251 116.546 134.489C116.645 134.728 116.695 134.983 116.695 135.241C116.695 135.806 116.47 136.348 116.071 136.747C115.672 137.146 115.13 137.371 114.565 137.371H93.5089V136.675H114.357C114.714 136.676 115.058 136.536 115.314 136.287C115.569 136.037 115.717 135.696 115.724 135.339Z" fill="white"/>
<path d="M114.576 137.559H93.5088C93.4627 137.559 93.4184 137.54 93.3858 137.508C93.3532 137.475 93.3348 137.431 93.3348 137.385V136.689C93.3348 136.643 93.3532 136.598 93.3858 136.566C93.4184 136.533 93.4627 136.515 93.5088 136.515H114.356C114.518 136.524 114.68 136.499 114.833 136.443C114.985 136.387 115.124 136.301 115.242 136.19C115.359 136.078 115.453 135.944 115.517 135.795C115.581 135.646 115.614 135.485 115.614 135.323C115.614 135.161 115.581 135.001 115.517 134.852C115.453 134.703 115.359 134.568 115.242 134.457C115.124 134.345 114.985 134.259 114.833 134.203C114.68 134.147 114.518 134.123 114.356 134.132H93.5088C93.4627 134.132 93.4184 134.113 93.3858 134.081C93.3532 134.048 93.3348 134.004 93.3348 133.958V133.262C93.3348 133.216 93.3532 133.171 93.3858 133.139C93.4184 133.106 93.4627 133.088 93.5088 133.088H114.732C115.299 133.089 115.843 133.314 116.244 133.715C116.645 134.117 116.871 134.66 116.872 135.228C116.875 135.531 116.817 135.833 116.703 136.115C116.589 136.397 116.421 136.653 116.208 136.87C115.994 137.086 115.74 137.259 115.46 137.377C115.18 137.495 114.88 137.557 114.576 137.559ZM93.6828 137.211H114.576C115.095 137.211 115.592 137.005 115.96 136.638C116.327 136.272 116.534 135.774 116.534 135.255C116.534 134.78 116.344 134.325 116.009 133.989C115.673 133.654 115.218 133.464 114.743 133.464H93.6723V133.811H114.346C114.554 133.802 114.763 133.834 114.958 133.907C115.153 133.98 115.332 134.092 115.483 134.236C115.634 134.38 115.754 134.553 115.836 134.744C115.918 134.936 115.961 135.142 115.961 135.351C115.961 135.56 115.918 135.766 115.836 135.958C115.754 136.149 115.634 136.323 115.483 136.466C115.332 136.61 115.153 136.722 114.958 136.795C114.763 136.868 114.554 136.9 114.346 136.891H93.6723L93.6828 137.211Z" fill="#263238"/>
<path d="M94.0585 125.378C94.3949 125.803 94.5779 126.329 94.5779 126.87C94.5779 127.412 94.3949 127.938 94.0585 128.363H115.456L116.093 126.735L115.275 125.291L94.0585 125.378Z" fill="white"/>
<path d="M115.459 128.537H94.0584C94.0262 128.537 93.9945 128.529 93.9668 128.512C93.9392 128.495 93.9167 128.472 93.9019 128.443C93.8856 128.416 93.8771 128.384 93.8771 128.352C93.8771 128.321 93.8856 128.289 93.9019 128.262C94.2163 127.866 94.3874 127.376 94.3874 126.87C94.3874 126.365 94.2163 125.874 93.9019 125.479C93.8799 125.453 93.8656 125.422 93.8607 125.389C93.8558 125.355 93.8604 125.321 93.874 125.291C93.8881 125.26 93.9107 125.235 93.9391 125.217C93.9675 125.199 94.0005 125.189 94.0341 125.19L115.258 125.099C115.288 125.102 115.317 125.111 115.344 125.126C115.37 125.141 115.393 125.161 115.411 125.186L116.225 126.637C116.236 126.66 116.242 126.685 116.242 126.71C116.242 126.736 116.236 126.761 116.225 126.783L115.619 128.422C115.608 128.456 115.587 128.485 115.558 128.506C115.529 128.526 115.495 128.537 115.459 128.537ZM94.3785 128.189H115.338L115.898 126.749L115.174 125.461L94.3855 125.552C94.6232 125.951 94.7472 126.408 94.7441 126.873C94.7411 127.338 94.611 127.793 94.3681 128.189H94.3785Z" fill="#263238"/>
<path d="M115.456 128.29V125.559H95.3633V124.863H122.098C122.374 124.851 122.649 124.896 122.908 124.994C123.166 125.092 123.402 125.241 123.601 125.432C123.8 125.623 123.959 125.853 124.067 126.107C124.176 126.361 124.232 126.634 124.232 126.91C124.232 127.187 124.176 127.46 124.067 127.714C123.959 127.968 123.8 128.198 123.601 128.389C123.402 128.58 123.166 128.729 122.908 128.827C122.649 128.925 122.374 128.969 122.098 128.958H95.3633V128.262L115.456 128.29Z" fill="white"/>
<path d="M122.098 129.146H95.3633C95.3172 129.146 95.2729 129.127 95.2403 129.095C95.2077 129.062 95.1893 129.018 95.1893 128.972V128.276C95.1902 128.23 95.2088 128.186 95.2413 128.154C95.2737 128.121 95.3174 128.103 95.3633 128.102H115.285V125.718H95.3633C95.3172 125.718 95.2729 125.7 95.2403 125.668C95.2077 125.635 95.1893 125.591 95.1893 125.545V124.849C95.1893 124.803 95.2077 124.758 95.2403 124.726C95.2729 124.693 95.3172 124.675 95.3633 124.675H122.098C122.397 124.663 122.695 124.712 122.975 124.818C123.255 124.924 123.511 125.086 123.726 125.293C123.942 125.501 124.114 125.75 124.231 126.025C124.349 126.301 124.409 126.597 124.409 126.896C124.409 127.196 124.349 127.492 124.231 127.767C124.114 128.043 123.942 128.292 123.726 128.499C123.511 128.707 123.255 128.868 122.975 128.975C122.695 129.081 122.397 129.13 122.098 129.118V129.146ZM95.5373 128.798H122.098C122.351 128.809 122.603 128.768 122.84 128.679C123.077 128.59 123.293 128.453 123.476 128.278C123.659 128.103 123.804 127.893 123.903 127.66C124.003 127.428 124.054 127.177 124.054 126.924C124.054 126.671 124.003 126.421 123.903 126.188C123.804 125.955 123.659 125.745 123.476 125.57C123.293 125.395 123.077 125.258 122.84 125.169C122.603 125.08 122.351 125.04 122.098 125.05H95.5373V125.398H115.459C115.506 125.398 115.55 125.417 115.582 125.449C115.615 125.482 115.633 125.526 115.633 125.572V128.304C115.633 128.35 115.615 128.394 115.582 128.427C115.55 128.459 115.506 128.478 115.459 128.478H95.5373V128.798Z" fill="#263238"/>
<path d="M115.456 126.926C115.456 126.746 115.421 126.569 115.353 126.403C115.285 126.237 115.184 126.086 115.058 125.959C114.931 125.832 114.78 125.731 114.615 125.663C114.449 125.594 114.271 125.559 114.092 125.559H93.2443V124.863H114.468C114.988 124.864 115.486 125.071 115.854 125.438C116.222 125.806 116.429 126.305 116.43 126.825C116.43 127.105 116.376 127.382 116.269 127.641C116.162 127.9 116.005 128.135 115.808 128.333C115.61 128.531 115.375 128.688 115.116 128.795C114.858 128.903 114.581 128.958 114.301 128.958H93.2443V128.262H114.092C114.449 128.262 114.792 128.122 115.047 127.872C115.302 127.623 115.449 127.283 115.456 126.926Z" fill="white"/>
<path d="M114.311 129.146H93.2443C93.1981 129.146 93.1539 129.127 93.1213 129.095C93.0886 129.062 93.0703 129.018 93.0703 128.972V128.276C93.0703 128.23 93.0886 128.185 93.1213 128.153C93.1539 128.12 93.1981 128.102 93.2443 128.102H114.092C114.254 128.11 114.416 128.086 114.568 128.03C114.72 127.974 114.859 127.888 114.977 127.776C115.095 127.665 115.189 127.531 115.253 127.382C115.317 127.233 115.35 127.072 115.35 126.91C115.35 126.748 115.317 126.588 115.253 126.439C115.189 126.29 115.095 126.155 114.977 126.044C114.859 125.932 114.72 125.846 114.568 125.79C114.416 125.734 114.254 125.71 114.092 125.718H93.2443C93.1981 125.718 93.1539 125.7 93.1213 125.668C93.0886 125.635 93.0703 125.591 93.0703 125.544V124.849C93.0703 124.803 93.0886 124.758 93.1213 124.726C93.1539 124.693 93.1981 124.675 93.2443 124.675H114.468C115.035 124.676 115.578 124.901 115.978 125.303C116.379 125.704 116.604 126.248 116.604 126.814C116.607 127.118 116.55 127.42 116.437 127.701C116.323 127.983 116.155 128.24 115.942 128.456C115.729 128.673 115.475 128.845 115.195 128.964C114.915 129.082 114.615 129.144 114.311 129.146ZM93.4182 128.798H114.311C114.83 128.798 115.327 128.592 115.694 128.225C116.06 127.858 116.266 127.361 116.266 126.842C116.266 126.368 116.078 125.912 115.743 125.576C115.408 125.241 114.953 125.051 114.478 125.05H93.4182V125.398H114.092C114.3 125.388 114.508 125.421 114.704 125.494C114.899 125.567 115.078 125.679 115.229 125.822C115.38 125.966 115.5 126.139 115.582 126.331C115.664 126.523 115.706 126.729 115.706 126.938C115.706 127.146 115.664 127.353 115.582 127.545C115.5 127.736 115.38 127.909 115.229 128.053C115.078 128.197 114.899 128.309 114.704 128.382C114.508 128.455 114.3 128.487 114.092 128.478H93.4182V128.798Z" fill="#263238"/>
<path d="M95.7599 129.716C96.0966 130.142 96.2798 130.668 96.2798 131.211C96.2798 131.753 96.0966 132.28 95.7599 132.705H117.161L117.794 131.073L116.983 129.626L95.7599 129.716Z" fill="white"/>
<path d="M117.171 132.879H95.7598C95.728 132.879 95.6969 132.87 95.6699 132.854C95.6428 132.837 95.6209 132.813 95.6067 132.785C95.5898 132.757 95.5809 132.725 95.5809 132.693C95.5809 132.66 95.5898 132.628 95.6067 132.601C95.9205 132.205 96.0913 131.714 96.0913 131.209C96.0913 130.704 95.9205 130.213 95.6067 129.817C95.5844 129.792 95.5701 129.762 95.5657 129.729C95.5614 129.696 95.5672 129.662 95.5823 129.633C95.5953 129.602 95.6171 129.576 95.6449 129.557C95.6728 129.538 95.7054 129.528 95.7389 129.528L116.962 129.438C116.993 129.438 117.023 129.447 117.05 129.462C117.076 129.478 117.098 129.501 117.112 129.528L117.926 130.976C117.938 130.999 117.944 131.024 117.944 131.05C117.944 131.077 117.938 131.102 117.926 131.125L117.331 132.768C117.319 132.8 117.297 132.828 117.268 132.848C117.24 132.868 117.206 132.878 117.171 132.879ZM96.0903 132.531H117.053L117.613 131.087L116.886 129.8L96.0973 129.89C96.341 130.287 96.4708 130.743 96.4727 131.209C96.4745 131.675 96.3483 132.132 96.1077 132.531H96.0903Z" fill="#263238"/>
<path d="M117.171 132.632V129.897H97.0785V129.201H123.81C124.353 129.201 124.874 129.417 125.259 129.802C125.643 130.186 125.859 130.707 125.859 131.251C125.859 131.794 125.643 132.315 125.259 132.7C124.874 133.084 124.353 133.3 123.81 133.3H97.0785V132.604L117.171 132.632Z" fill="#263238"/>
<path d="M123.809 133.488H97.0784C97.0322 133.488 96.988 133.469 96.9554 133.437C96.9227 133.404 96.9044 133.36 96.9044 133.314V132.618C96.9044 132.572 96.9227 132.528 96.9554 132.495C96.988 132.462 97.0322 132.444 97.0784 132.444H116.983V130.057H97.0784C97.0322 130.057 96.988 130.039 96.9554 130.006C96.9227 129.974 96.9044 129.929 96.9044 129.883V129.187C96.9044 129.141 96.9227 129.097 96.9554 129.064C96.988 129.032 97.0322 129.013 97.0784 129.013H123.809C124.399 129.013 124.965 129.248 125.382 129.665C125.798 130.082 126.033 130.647 126.033 131.237C126.033 131.826 125.798 132.392 125.382 132.809C124.965 133.226 124.399 133.46 123.809 133.46V133.488ZM97.2523 133.14H123.809C124.307 133.14 124.784 132.942 125.136 132.591C125.487 132.239 125.685 131.762 125.685 131.265C125.685 130.767 125.487 130.29 125.136 129.938C124.784 129.587 124.307 129.389 123.809 129.389H97.2523V129.737H117.171C117.217 129.738 117.261 129.757 117.293 129.789C117.326 129.821 117.344 129.865 117.345 129.911V132.646C117.344 132.692 117.326 132.735 117.293 132.768C117.261 132.8 117.217 132.819 117.171 132.82H97.2523V133.14Z" fill="#263238"/>
<path d="M117.171 131.265C117.171 130.902 117.027 130.554 116.771 130.298C116.514 130.041 116.166 129.897 115.804 129.897H94.9562V129.201H116.18C116.438 129.201 116.693 129.252 116.931 129.351C117.17 129.45 117.386 129.595 117.568 129.777C117.751 129.96 117.895 130.177 117.994 130.415C118.092 130.654 118.142 130.909 118.142 131.167C118.142 131.732 117.918 132.274 117.518 132.674C117.119 133.074 116.578 133.299 116.013 133.3H94.9562V132.604H115.804C116.162 132.604 116.505 132.464 116.761 132.214C117.017 131.963 117.164 131.622 117.171 131.265Z" fill="white"/>
<path d="M116.023 133.488H94.9561C94.9099 133.488 94.8657 133.469 94.8331 133.437C94.8004 133.404 94.7821 133.36 94.7821 133.314V132.618C94.7821 132.572 94.8004 132.528 94.8331 132.495C94.8657 132.462 94.9099 132.444 94.9561 132.444H115.804C116.12 132.444 116.424 132.318 116.648 132.094C116.871 131.871 116.997 131.567 116.997 131.251C116.997 130.934 116.871 130.631 116.648 130.407C116.424 130.183 116.12 130.057 115.804 130.057H94.9561C94.9099 130.057 94.8657 130.039 94.8331 130.006C94.8004 129.974 94.7821 129.929 94.7821 129.883V129.187C94.7821 129.141 94.8004 129.097 94.8331 129.064C94.8657 129.032 94.9099 129.013 94.9561 129.013H116.18C116.746 129.014 117.29 129.24 117.69 129.641C118.091 130.043 118.316 130.586 118.316 131.153C118.319 131.457 118.262 131.759 118.149 132.041C118.035 132.323 117.867 132.579 117.654 132.796C117.441 133.013 117.187 133.186 116.907 133.305C116.627 133.423 116.327 133.485 116.023 133.488ZM95.13 133.14H116.023C116.542 133.139 117.039 132.932 117.406 132.565C117.772 132.198 117.978 131.7 117.978 131.181C117.978 130.706 117.79 130.251 117.455 129.915C117.119 129.579 116.665 129.39 116.19 129.389H95.13V129.737H115.804C116.213 129.737 116.605 129.899 116.894 130.189C117.183 130.478 117.345 130.87 117.345 131.278C117.345 131.687 117.183 132.079 116.894 132.368C116.605 132.657 116.213 132.82 115.804 132.82H95.13V133.14Z" fill="#263238"/>
<path d="M163.626 137.211H5.05237V137.559H163.626V137.211Z" fill="#263238"/>
<path d="M133.037 117.636C133.037 117.636 132.96 115.678 132.132 114.317C131.304 112.957 128.284 111.979 126.701 112.661C125.9 112.991 125.119 113.368 124.363 113.792C125.936 114.284 127.434 114.992 128.813 115.897C130.086 116.76 131.524 117.352 133.037 117.636Z" fill="white"/>
<path d="M133.036 117.797H133.012C131.473 117.513 130.01 116.912 128.715 116.033C127.352 115.137 125.87 114.434 124.314 113.945C124.281 113.935 124.253 113.916 124.231 113.89C124.209 113.864 124.196 113.833 124.192 113.799C124.188 113.765 124.193 113.731 124.208 113.701C124.223 113.671 124.246 113.645 124.276 113.628C125.038 113.199 125.825 112.818 126.635 112.487C128.263 111.791 131.377 112.738 132.281 114.227C133.123 115.618 133.207 117.549 133.21 117.63C133.211 117.655 133.207 117.681 133.196 117.704C133.186 117.728 133.171 117.748 133.151 117.765C133.118 117.79 133.077 117.801 133.036 117.797ZM124.798 113.736C126.248 114.228 127.63 114.902 128.91 115.744C130.106 116.544 131.442 117.109 132.849 117.41C132.773 116.356 132.478 115.328 131.982 114.394C131.168 113.065 128.249 112.171 126.763 112.807C125.817 113.214 125.163 113.541 124.798 113.736Z" fill="#263238"/>
<path d="M136.202 118.604C136.202 118.604 134.393 116.864 134.091 114.456C133.788 112.049 136.356 108.27 136.356 108.27C137.204 109.882 137.886 111.576 138.391 113.325C139.146 116.039 136.202 118.604 136.202 118.604Z" fill="white"/>
<path d="M136.202 118.778C136.158 118.777 136.116 118.759 136.084 118.729C136.008 118.656 134.226 116.923 133.92 114.477C133.614 112.031 136.105 108.329 136.209 108.173C136.225 108.148 136.248 108.127 136.274 108.113C136.3 108.098 136.329 108.091 136.359 108.091C136.389 108.091 136.418 108.098 136.444 108.113C136.471 108.127 136.493 108.148 136.509 108.173C137.359 109.802 138.044 111.512 138.554 113.277C139.33 116.06 136.439 118.628 136.314 118.736C136.283 118.762 136.243 118.777 136.202 118.778ZM136.338 108.615C135.788 109.485 134.018 112.463 134.251 114.435C134.484 116.408 135.799 117.936 136.196 118.36C136.731 117.845 138.84 115.636 138.21 113.371C137.738 111.73 137.112 110.137 136.338 108.615Z" fill="#263238"/>
<path d="M139.671 117.849C139.671 117.849 139.219 115.587 140.051 114.004C140.882 112.421 143.067 112.571 145.252 113.249C147.437 113.928 148.119 113.928 148.119 113.928C146.612 114.939 145.024 115.822 143.37 116.568C142.167 117.077 140.931 117.505 139.671 117.849Z" fill="white"/>
<path d="M139.672 118.023C139.644 118.016 139.619 118.003 139.598 117.984C139.558 117.957 139.53 117.916 139.518 117.869C139.501 117.776 139.066 115.528 139.912 113.91C140.656 112.491 142.524 112.202 145.322 113.068C147.437 113.726 148.13 113.74 148.137 113.74C148.174 113.74 148.211 113.752 148.241 113.774C148.271 113.797 148.293 113.829 148.304 113.865C148.314 113.9 148.313 113.938 148.3 113.972C148.288 114.007 148.265 114.036 148.234 114.056C146.709 115.08 145.1 115.974 143.426 116.728C142.215 117.238 140.973 117.67 139.706 118.019L139.672 118.023ZM142.549 112.939C141.536 112.939 140.649 113.232 140.204 114.084C139.546 115.34 139.731 117.069 139.814 117.633C140.997 117.293 142.159 116.883 143.293 116.405C144.797 115.735 146.245 114.945 147.622 114.042C146.797 113.885 145.984 113.676 145.186 113.416C144.334 113.131 143.446 112.971 142.549 112.939Z" fill="#263238"/>
<path d="M136.223 125.987C136.172 125.987 136.122 125.966 136.086 125.93C136.049 125.893 136.029 125.843 136.029 125.792V115.006C136.029 114.954 136.049 114.905 136.086 114.868C136.122 114.832 136.172 114.811 136.223 114.811C136.275 114.811 136.325 114.832 136.361 114.868C136.398 114.905 136.418 114.954 136.418 115.006V125.792C136.418 125.843 136.398 125.893 136.361 125.93C136.325 125.966 136.275 125.987 136.223 125.987Z" fill="#263238"/>
<path d="M137.128 125.987H137.104C137.078 125.984 137.053 125.976 137.031 125.963C137.009 125.95 136.989 125.933 136.974 125.913C136.958 125.892 136.947 125.869 136.94 125.844C136.934 125.819 136.933 125.793 136.937 125.767C136.971 125.5 137.883 119.108 140.98 115.563C140.995 115.54 141.015 115.521 141.039 115.507C141.062 115.493 141.088 115.483 141.116 115.48C141.143 115.476 141.17 115.479 141.197 115.487C141.223 115.495 141.247 115.508 141.268 115.526C141.289 115.544 141.305 115.566 141.317 115.591C141.328 115.616 141.335 115.643 141.335 115.671C141.335 115.698 141.33 115.725 141.319 115.75C141.308 115.776 141.292 115.798 141.272 115.817C138.255 119.275 137.33 125.757 137.323 125.823C137.315 125.869 137.292 125.911 137.256 125.941C137.22 125.971 137.175 125.987 137.128 125.987Z" fill="#263238"/>
<path d="M135.319 125.827C135.268 125.825 135.219 125.803 135.183 125.766C135.147 125.729 135.127 125.68 135.128 125.628C135.128 125.566 135.155 119.428 131.506 116.506C131.466 116.473 131.44 116.426 131.434 116.375C131.428 116.323 131.443 116.272 131.474 116.231C131.49 116.211 131.51 116.194 131.533 116.182C131.556 116.17 131.58 116.162 131.606 116.16C131.632 116.157 131.657 116.16 131.682 116.167C131.706 116.175 131.729 116.187 131.749 116.203C135.552 119.244 135.521 125.374 135.517 125.632C135.517 125.658 135.512 125.683 135.502 125.707C135.492 125.731 135.477 125.753 135.459 125.771C135.44 125.789 135.419 125.803 135.395 125.813C135.37 125.822 135.345 125.827 135.319 125.827Z" fill="#263238"/>
<path d="M138.335 125.75H138.287C138.237 125.736 138.194 125.703 138.168 125.658C138.142 125.613 138.135 125.56 138.147 125.51C138.528 124.188 139.124 122.939 139.911 121.811C139.926 121.789 139.944 121.77 139.966 121.755C139.988 121.74 140.013 121.73 140.039 121.725C140.065 121.719 140.091 121.72 140.117 121.725C140.143 121.731 140.168 121.742 140.189 121.757C140.211 121.773 140.229 121.792 140.243 121.815C140.256 121.838 140.265 121.863 140.269 121.889C140.273 121.915 140.271 121.942 140.264 121.968C140.257 121.993 140.245 122.017 140.228 122.038C139.475 123.125 138.9 124.325 138.523 125.593C138.515 125.637 138.491 125.676 138.457 125.705C138.423 125.733 138.38 125.749 138.335 125.75Z" fill="#263238"/>
<path d="M139.522 122.751C139.522 122.751 139.445 120.639 140.353 120.336C141.261 120.034 142.093 120.792 142.765 121.244C143.436 121.697 144.198 122.149 144.198 123.506C144.12 124.799 143.943 126.084 143.669 127.35C143.669 127.35 142.918 125.012 141.634 123.958C140.35 122.904 139.522 122.751 139.522 122.751Z" fill="white"/>
<path d="M143.669 127.524C143.633 127.524 143.598 127.513 143.569 127.491C143.539 127.47 143.517 127.44 143.506 127.406C143.506 127.382 142.751 125.103 141.523 124.09C140.294 123.078 139.498 122.925 139.491 122.921C139.452 122.914 139.417 122.894 139.391 122.865C139.365 122.835 139.35 122.797 139.348 122.758C139.348 122.528 139.296 120.507 140.298 120.173C141.15 119.891 141.926 120.441 142.552 120.869C142.66 120.945 142.761 121.018 142.862 121.084L142.932 121.13C143.607 121.578 144.372 122.086 144.372 123.492C144.295 124.799 144.117 126.099 143.84 127.378C143.831 127.415 143.811 127.449 143.782 127.473C143.754 127.498 143.717 127.512 143.68 127.514L143.669 127.524ZM139.692 122.615C140.448 122.881 141.146 123.291 141.745 123.823C142.66 124.578 143.304 125.934 143.621 126.714C143.836 125.656 143.971 124.584 144.024 123.506C144.024 122.288 143.401 121.874 142.74 121.436L142.667 121.387C142.566 121.321 142.458 121.244 142.351 121.168C141.763 120.75 141.095 120.274 140.406 120.503C139.811 120.702 139.692 121.992 139.692 122.615Z" fill="#263238"/>
<path d="M133.962 125.827C133.92 125.827 133.88 125.813 133.846 125.789C133.812 125.765 133.787 125.73 133.774 125.691C133.383 124.562 132.705 123.554 131.805 122.768C131.785 122.752 131.768 122.733 131.755 122.71C131.743 122.688 131.735 122.663 131.732 122.637C131.729 122.612 131.731 122.586 131.738 122.561C131.746 122.537 131.757 122.513 131.774 122.493C131.789 122.473 131.809 122.457 131.831 122.444C131.853 122.432 131.877 122.424 131.903 122.421C131.928 122.418 131.954 122.42 131.978 122.427C132.002 122.434 132.025 122.446 132.045 122.462C133.005 123.295 133.726 124.369 134.132 125.573C134.141 125.597 134.144 125.622 134.142 125.648C134.14 125.673 134.133 125.698 134.121 125.721C134.109 125.743 134.093 125.764 134.074 125.78C134.054 125.796 134.032 125.809 134.007 125.816C133.993 125.822 133.977 125.825 133.962 125.827Z" fill="#263238"/>
<path d="M133.037 123.429C133.037 123.429 133.339 122.072 132.584 121.091C131.829 120.11 130.02 120.336 129.105 121.394C128.19 122.452 126.917 125.618 126.917 125.618C126.917 125.618 128.726 124.184 130.838 124.184C132.95 124.184 133.037 123.429 133.037 123.429Z" fill="white"/>
<path d="M126.927 125.792C126.89 125.79 126.853 125.778 126.823 125.757C126.792 125.734 126.77 125.701 126.76 125.664C126.75 125.627 126.752 125.587 126.767 125.552C126.819 125.423 128.072 122.347 128.983 121.279C129.265 120.964 129.612 120.714 129.999 120.544C130.386 120.374 130.805 120.289 131.227 120.295C131.513 120.29 131.796 120.35 132.055 120.471C132.314 120.591 132.543 120.769 132.723 120.99C133.496 121.996 133.235 123.339 133.207 123.464C133.179 123.589 132.977 124.362 130.848 124.362C128.827 124.362 127.052 125.754 127.021 125.754C126.994 125.775 126.961 125.788 126.927 125.792ZM131.158 120.639C130.797 120.643 130.44 120.722 130.111 120.871C129.783 121.02 129.488 121.236 129.248 121.505C128.597 122.267 127.727 124.188 127.32 125.134C128.373 124.448 129.592 124.06 130.848 124.01C132.727 124.01 132.863 123.412 132.863 123.405C132.863 123.405 133.137 122.114 132.442 121.213C132.292 121.034 132.104 120.89 131.891 120.794C131.679 120.698 131.447 120.651 131.213 120.656L131.158 120.639Z" fill="#263238"/>
<path d="M139.045 137.385H133.026L130.016 127.43H142.055L139.045 137.385Z" fill="white"/>
<path d="M139.045 137.559H133.026C132.989 137.559 132.953 137.547 132.922 137.525C132.892 137.503 132.87 137.472 132.859 137.437L129.856 127.483C129.85 127.456 129.848 127.428 129.853 127.401C129.858 127.374 129.869 127.349 129.884 127.326C129.901 127.305 129.922 127.288 129.946 127.276C129.97 127.264 129.997 127.257 130.023 127.256H142.062C142.089 127.257 142.115 127.263 142.139 127.275C142.163 127.287 142.184 127.305 142.201 127.326C142.218 127.348 142.229 127.374 142.234 127.401C142.239 127.428 142.237 127.456 142.229 127.483L139.219 137.437C139.208 137.473 139.184 137.505 139.153 137.527C139.121 137.549 139.083 137.56 139.045 137.559ZM133.155 137.211H138.902L141.808 127.604H130.253L133.155 137.211Z" fill="#263238"/>
<path d="M142.09 125.781H129.985V127.431H142.09V125.781Z" fill="white"/>
<path d="M142.09 127.605H129.985C129.939 127.605 129.895 127.586 129.862 127.554C129.83 127.521 129.811 127.477 129.811 127.431V125.781C129.811 125.735 129.83 125.691 129.862 125.658C129.895 125.626 129.939 125.607 129.985 125.607H142.09C142.136 125.607 142.18 125.626 142.213 125.658C142.245 125.691 142.264 125.735 142.264 125.781V127.431C142.264 127.477 142.245 127.521 142.213 127.554C142.18 127.586 142.136 127.605 142.09 127.605ZM130.159 127.257H141.916V125.955H130.159V127.257Z" fill="#263238"/>
<path d="M151.637 101.472H39.7891V98.9982H151.637V101.472ZM40.137 101.124H151.289V99.3461H40.137V101.124Z" fill="#263238"/>
<path d="M151.637 100.369H39.7891V32.572H151.637V100.369ZM40.137 100.021H151.289V32.9199H40.137V100.021Z" fill="#263238"/>
<path d="M149.159 35.119H42.2662V97.8221H149.159V35.119Z" fill="#808080"/>
<path d="M149.34 97.9961H42.0923V34.9451H149.34V97.9961ZM42.4472 97.6482H148.992V35.293H42.4402L42.4472 97.6482Z" fill="#263238"/>
<path d="M86.9642 83.0005C86.7663 83.0043 86.5728 82.9418 86.4145 82.823C86.2541 82.7024 86.1252 82.5449 86.0388 82.3638C85.9462 82.1804 85.8985 81.9777 85.8996 81.7723C85.8906 81.4848 85.9478 81.1992 86.0666 80.9373C86.1728 80.7147 86.3274 80.5186 86.5189 80.3632C86.7228 80.1989 86.9474 80.0621 87.1869 79.9561C87.4409 79.8413 87.7088 79.7265 87.9906 79.6082V79.2324C87.9936 79.0543 87.9819 78.8763 87.9558 78.7001C87.9404 78.5808 87.8866 78.4697 87.8027 78.3835C87.7041 78.3061 87.5798 78.2688 87.4548 78.2791C87.3395 78.2735 87.2256 78.3066 87.1313 78.3731C87.0443 78.4381 86.9807 78.5297 86.9503 78.634C86.9118 78.7626 86.8931 78.8964 86.8947 79.0306V79.2985L85.924 79.2603C85.9009 78.7962 86.0454 78.3394 86.331 77.9729C86.4894 77.8233 86.6775 77.7088 86.8832 77.6368C87.0888 77.5649 87.3073 77.5372 87.5244 77.5554C87.7314 77.5347 87.9403 77.5629 88.1343 77.6379C88.3283 77.7128 88.502 77.8324 88.6412 77.9869C88.8861 78.3554 89.0022 78.7945 88.9718 79.2359V81.6714C88.9718 81.8349 88.9718 81.995 88.9718 82.1481C88.9718 82.3011 88.9927 82.4403 89.01 82.5725C89.0274 82.7047 89.0379 82.83 89.0518 82.9448H88.1507C88.1333 82.8474 88.1089 82.7221 88.0811 82.5725C88.0533 82.4229 88.0359 82.2872 88.0219 82.1654C87.9567 82.3853 87.837 82.5851 87.674 82.7465C87.5792 82.8348 87.4673 82.9029 87.3453 82.9466C87.2233 82.9903 87.0936 83.0086 86.9642 83.0005ZM87.3504 82.1585C87.4483 82.1583 87.5439 82.1292 87.6253 82.075C87.7079 82.0201 87.7848 81.9572 87.8549 81.8871C87.9062 81.8354 87.9517 81.7782 87.9906 81.7166V80.2136C87.8375 80.2971 87.6949 80.3841 87.5592 80.4711C87.4352 80.5495 87.3188 80.6392 87.2113 80.739C87.1126 80.8316 87.0313 80.9412 86.9712 81.0625C86.9107 81.1895 86.8809 81.329 86.8842 81.4696C86.8761 81.6455 86.9171 81.8201 87.0025 81.9741C87.0407 82.0305 87.0928 82.0762 87.1537 82.1067C87.2146 82.1371 87.2824 82.1514 87.3504 82.1481V82.1585Z" fill="#E0E0E0"/>
<path d="M89.4972 82.9273L90.6906 80.1439L89.532 77.6249H90.4679L91.2473 79.3054L91.9431 77.6249H92.9034L91.6926 80.2587L92.9243 82.9273H91.9883L91.1533 81.1285L90.4366 82.9273H89.4972Z" fill="#E0E0E0"/>
<path d="M93.6967 78.9575V78.3973L94.8344 77.1587C95.0153 76.9639 95.1614 76.8108 95.2693 76.6577C95.3628 76.5449 95.4401 76.4196 95.4989 76.2854C95.5436 76.1821 95.5672 76.0709 95.5685 75.9584C95.5772 75.805 95.5316 75.6535 95.4398 75.5304C95.3891 75.4772 95.3272 75.4358 95.2586 75.4094C95.19 75.3829 95.1164 75.372 95.0431 75.3773C94.9486 75.3678 94.8533 75.3838 94.767 75.4236C94.6808 75.4633 94.6067 75.5255 94.5526 75.6035C94.4456 75.8054 94.3962 76.0329 94.4099 76.2611H93.6723V76.1323C93.6677 75.8818 93.7151 75.633 93.8115 75.4017C93.8999 75.1884 94.0517 75.0075 94.2464 74.8833C94.4834 74.7452 94.7553 74.6787 95.0292 74.6919C95.3717 74.6718 95.7082 74.7882 95.9651 75.0155C96.0822 75.1321 96.1736 75.2719 96.2335 75.4258C96.2934 75.5798 96.3205 75.7446 96.3131 75.9097C96.3188 76.1926 96.244 76.4713 96.0973 76.7134C95.9009 77.0062 95.6747 77.2778 95.4224 77.524L94.6674 78.3208H96.3652V78.9644L93.6967 78.9575Z" fill="#E0E0E0"/>
<path d="M105.849 83.0004C105.67 83.0024 105.494 82.9529 105.342 82.8578C105.198 82.7703 105.067 82.6638 104.952 82.5412V82.9273H103.971V75.4991H104.952V78.0494C105.072 77.9123 105.213 77.7949 105.369 77.7015C105.546 77.6 105.747 77.5494 105.95 77.5554C106.188 77.5429 106.421 77.6199 106.604 77.7711C106.77 77.9184 106.896 78.1051 106.97 78.3139C107.046 78.5278 107.099 78.7495 107.126 78.9749C107.147 79.1976 107.161 79.389 107.161 79.5455V80.8294C107.164 81.1861 107.127 81.5421 107.05 81.8905C106.993 82.1898 106.857 82.4685 106.657 82.6977C106.551 82.8027 106.425 82.8841 106.286 82.9363C106.147 82.9885 105.998 83.0104 105.849 83.0004ZM105.648 82.2315C105.72 82.2373 105.793 82.2228 105.857 82.1896C105.922 82.1564 105.976 82.1059 106.013 82.0436C106.098 81.8861 106.146 81.7111 106.152 81.5322C106.17 81.3199 106.18 81.0833 106.18 80.8363V79.5525C106.18 79.3489 106.168 79.1455 106.142 78.9436C106.127 78.7851 106.074 78.6324 105.989 78.4983C105.944 78.4425 105.887 78.3984 105.821 78.3699C105.756 78.3414 105.684 78.3293 105.613 78.3347C105.487 78.3347 105.362 78.362 105.248 78.4148C105.143 78.466 105.044 78.5278 104.952 78.5992V82.0019C105.044 82.075 105.147 82.1326 105.258 82.1724C105.383 82.2155 105.515 82.2356 105.648 82.2315Z" fill="#E0E0E0"/>
<path d="M107.589 82.9273L108.779 80.1439L107.628 77.6249H108.563L109.343 79.3054L110.039 77.6249H111.002L109.792 80.2587L111.02 82.9273H110.084L109.249 81.1285L108.536 82.9273H107.589Z" fill="#E0E0E0"/>
<path d="M119.986 83.0004C119.638 83.0248 119.292 82.933 119.001 82.7395C118.771 82.5528 118.613 82.2922 118.553 82.0018C118.471 81.6376 118.433 81.2651 118.438 80.892V79.6708C118.431 79.287 118.47 78.9037 118.556 78.5296C118.618 78.2421 118.779 77.9858 119.012 77.8059C119.3 77.6172 119.642 77.528 119.986 77.5519C120.295 77.5337 120.604 77.5986 120.88 77.7398C121.092 77.8646 121.248 78.0646 121.319 78.2999C121.403 78.5998 121.443 78.9104 121.437 79.2219V79.5351H120.546V79.2115C120.551 79.0272 120.536 78.8429 120.501 78.6618C120.481 78.5477 120.422 78.4442 120.334 78.3695C120.233 78.2982 120.109 78.2649 119.986 78.2756C119.854 78.2676 119.723 78.3071 119.617 78.3869C119.521 78.4883 119.462 78.6197 119.45 78.7592C119.419 78.9898 119.405 79.2224 119.408 79.455V81.1251C119.383 81.4336 119.427 81.7438 119.537 82.0332C119.584 82.1113 119.652 82.1744 119.733 82.2151C119.815 82.2558 119.906 82.2723 119.996 82.2628C120.123 82.2702 120.247 82.2291 120.344 82.148C120.428 82.0579 120.479 81.943 120.49 81.8209C120.513 81.663 120.523 81.5037 120.522 81.3443V80.9129H121.412V81.2817C121.419 81.5914 121.377 81.9001 121.287 82.1967C121.215 82.4383 121.06 82.6466 120.849 82.7847C120.587 82.9346 120.288 83.0092 119.986 83.0004Z" fill="#E0E0E0"/>
<path d="M124.408 78.7453V77.9938H127.223V78.7453H124.408ZM124.408 80.3701V79.6255H127.223V80.3701H124.408Z" fill="#E0E0E0"/>
<path d="M132.195 83.0108C131.826 83.0256 131.461 82.9259 131.151 82.7255C130.874 82.5341 130.662 82.262 130.545 81.9462C130.408 81.5865 130.341 81.2039 130.347 80.8189V77.6249C130.339 77.2359 130.404 76.8488 130.538 76.4837C130.655 76.1718 130.866 75.9033 131.14 75.7148C131.453 75.5221 131.817 75.4265 132.184 75.44C132.552 75.4246 132.915 75.5203 133.228 75.7148C133.502 75.9035 133.711 76.172 133.826 76.4837C133.966 76.8478 134.036 77.235 134.032 77.6249V80.8258C134.039 81.2143 133.971 81.6004 133.833 81.9636C133.717 82.2761 133.508 82.5457 133.235 82.7359C132.925 82.9328 132.561 83.0288 132.195 83.0108ZM132.195 82.2036C132.291 82.2102 132.389 82.1956 132.479 82.1607C132.57 82.1259 132.652 82.0717 132.72 82.0018C132.846 81.8531 132.932 81.6747 132.97 81.4834C133.016 81.2672 133.038 81.0468 133.037 80.8258V77.6249C133.043 77.3919 133.027 77.1588 132.988 76.9291C132.955 76.7406 132.87 76.5649 132.744 76.4211C132.673 76.3533 132.589 76.3011 132.497 76.2682C132.404 76.2352 132.306 76.2221 132.208 76.2297C132.11 76.2211 132.01 76.2337 131.916 76.2667C131.823 76.2997 131.737 76.3523 131.666 76.4211C131.537 76.5636 131.451 76.7397 131.419 76.9291C131.376 77.1515 131.355 77.3776 131.356 77.6041V80.8224C131.355 81.0433 131.377 81.2637 131.422 81.4799C131.461 81.6723 131.55 81.851 131.68 81.9984C131.747 82.066 131.827 82.1192 131.916 82.1545C132.004 82.1898 132.099 82.2065 132.195 82.2036Z" fill="#E0E0E0"/>
<path d="M99.6566 80.9824V79.4863H98.3728V78.7452H99.6566V77.2491H100.391V78.7452H101.723V79.4863H100.391V80.9824H99.6566Z" fill="#E0E0E0"/>
<path d="M114.68 80.9824V79.4863H113.396V78.7452H114.68V77.2491H115.414V78.7452H116.743V79.4863H115.414V80.9824H114.68Z" fill="#E0E0E0"/>
<path d="M62.0111 54.5261L63.2045 51.7427L62.0111 49.2238H62.947L63.7507 50.9042L64.4466 49.2238H65.4069L64.1961 51.8576L65.4277 54.5261H64.4918L63.6568 52.7274L62.9401 54.5261H62.0111Z" fill="#E0E0E0"/>
<path d="M68.0753 50.344V49.5925H70.89V50.344H68.0753ZM68.0753 51.9689V51.2243H70.89V51.9689H68.0753Z" fill="#E0E0E0"/>
<path d="M73.5586 52.6543V51.9132H77.9529V52.6543H73.5586Z" fill="#E0E0E0"/>
<path d="M80.4094 54.5992C80.2298 54.6027 80.053 54.5531 79.9015 54.4565C79.7579 54.369 79.6268 54.2625 79.5118 54.1399V54.5261H78.5306V47.0979H79.5118V49.6482C79.6319 49.5111 79.7728 49.3937 79.9293 49.3003C80.1057 49.1987 80.3069 49.1481 80.5103 49.1541C80.7486 49.1425 80.9828 49.2193 81.1679 49.3699C81.3262 49.5198 81.4457 49.7061 81.5158 49.9126C81.5953 50.1256 81.6479 50.3477 81.6724 50.5737C81.6942 50.7631 81.7058 50.9536 81.7072 51.1443V52.4281C81.7096 52.7847 81.6735 53.1405 81.5993 53.4893C81.5414 53.7889 81.4045 54.0676 81.2027 54.2965C81.0991 54.3997 80.9749 54.48 80.8382 54.5321C80.7016 54.5843 80.5555 54.6071 80.4094 54.5992ZM80.2076 53.8303C80.2805 53.8363 80.3536 53.822 80.4188 53.7888C80.4839 53.7556 80.5385 53.7049 80.5764 53.6424C80.6587 53.4839 80.705 53.3093 80.7121 53.1309C80.7295 52.9187 80.74 52.6821 80.74 52.4351V51.1512C80.7414 50.9477 80.7298 50.7444 80.7052 50.5424C80.6892 50.3836 80.6355 50.2309 80.5486 50.097C80.504 50.0412 80.4465 49.9971 80.381 49.9686C80.3155 49.9401 80.2441 49.9281 80.1728 49.9335C80.0525 49.9351 79.9339 49.9624 79.8249 50.0135C79.7188 50.064 79.6185 50.1258 79.5257 50.1979V53.6006C79.6178 53.6738 79.7212 53.7314 79.8319 53.7711C79.9527 53.8126 80.0799 53.8327 80.2076 53.8303Z" fill="#E0E0E0"/>
<path d="M101.629 54.5992C101.45 54.6027 101.273 54.5531 101.121 54.4565C100.978 54.3681 100.847 54.2617 100.732 54.1399V54.5261H99.7505V47.0979H100.732V49.6482C100.852 49.5111 100.993 49.3937 101.149 49.3003C101.326 49.1987 101.527 49.1481 101.73 49.1541C101.968 49.1425 102.203 49.2193 102.388 49.3699C102.546 49.5198 102.665 49.7061 102.736 49.9126C102.815 50.1256 102.868 50.3477 102.892 50.5737C102.914 50.7631 102.926 50.9536 102.927 51.1443V52.4281C102.929 52.7847 102.893 53.1405 102.819 53.4893C102.763 53.7894 102.626 54.0684 102.423 54.2965C102.319 54.3997 102.195 54.48 102.058 54.5321C101.921 54.5843 101.775 54.6071 101.629 54.5992ZM101.427 53.8303C101.5 53.8363 101.573 53.822 101.639 53.7888C101.704 53.7556 101.758 53.7049 101.796 53.6424C101.879 53.4839 101.925 53.3093 101.932 53.1309C101.953 52.9187 101.96 52.6821 101.96 52.4351V51.1512C101.961 50.9477 101.95 50.7444 101.925 50.5424C101.911 50.3832 101.857 50.2301 101.768 50.097C101.724 50.0412 101.666 49.9971 101.601 49.9686C101.535 49.9401 101.464 49.9281 101.393 49.9335C101.272 49.9351 101.154 49.9624 101.045 50.0135C100.939 50.0647 100.839 50.1265 100.746 50.1979V53.6006C100.838 53.6731 100.941 53.7306 101.052 53.7711C101.173 53.8124 101.3 53.8324 101.427 53.8303Z" fill="#E0E0E0"/>
<path d="M104.044 50.5563V49.9961L105.182 48.7575C105.363 48.5627 105.509 48.4096 105.617 48.2565C105.708 48.142 105.785 48.017 105.846 47.8842C105.89 47.7807 105.912 47.6695 105.912 47.5572C105.923 47.4037 105.877 47.2516 105.784 47.1292C105.734 47.0757 105.673 47.0341 105.605 47.0075C105.537 46.981 105.463 46.9703 105.39 46.9761C105.296 46.9666 105.201 46.9826 105.114 47.0224C105.028 47.0621 104.954 47.1243 104.9 47.2023C104.793 47.4042 104.744 47.6317 104.757 47.8599H104.034V47.7311C104.03 47.481 104.076 47.2325 104.169 47.0005C104.26 46.7877 104.413 46.6071 104.608 46.4821C104.845 46.344 105.117 46.2775 105.39 46.2907C105.733 46.271 106.069 46.3873 106.326 46.6143C106.443 46.7309 106.535 46.8707 106.595 47.0246C106.655 47.1786 106.682 47.3434 106.674 47.5085C106.68 47.7914 106.605 48.0701 106.459 48.3122C106.262 48.6049 106.036 48.8766 105.784 49.1228L105.022 49.9126H106.72V50.5563H104.044Z" fill="#E0E0E0"/>
<path d="M118.264 54.5261V52.536H116.106V51.5096L118.027 47.0979H119.186V51.6662H120.017V52.536H119.186V54.5261H118.264ZM117.053 51.6662H118.264V48.2878L117.053 51.6662Z" fill="#E0E0E0"/>
<path d="M121.618 54.5994C121.42 54.6019 121.227 54.5395 121.068 54.4219C120.909 54.2994 120.781 54.1424 120.692 53.9627C120.602 53.7785 120.556 53.5761 120.556 53.3712C120.546 53.084 120.602 52.7984 120.72 52.5362C120.827 52.3134 120.983 52.1173 121.176 51.9621C121.38 51.7978 121.604 51.661 121.844 51.555C122.098 51.4402 122.366 51.3254 122.647 51.2071V50.8348C122.649 50.6566 122.637 50.4786 122.609 50.3025C122.595 50.1835 122.542 50.0724 122.46 49.9859C122.361 49.9085 122.237 49.8712 122.112 49.8815C121.995 49.8759 121.88 49.9089 121.785 49.9754C121.698 50.0397 121.635 50.1318 121.607 50.2364C121.567 50.3646 121.548 50.4986 121.551 50.633V50.9009L120.581 50.8626C120.553 50.3959 120.695 49.935 120.981 49.5649C121.139 49.4156 121.328 49.3013 121.533 49.2294C121.739 49.1575 121.957 49.1295 122.174 49.1474C122.382 49.1266 122.591 49.1548 122.786 49.2298C122.98 49.3047 123.155 49.4242 123.295 49.5788C123.544 49.946 123.666 50.3847 123.643 50.8278V53.2633C123.643 53.4268 123.643 53.5869 123.643 53.74C123.643 53.8931 123.663 54.0322 123.677 54.1644C123.691 54.2967 123.709 54.4219 123.719 54.5367H122.821C122.801 54.4393 122.78 54.3141 122.752 54.1644C122.724 54.0148 122.703 53.8791 122.693 53.7574C122.626 53.9767 122.507 54.1763 122.345 54.3384C122.248 54.4302 122.134 54.5009 122.009 54.5458C121.884 54.5908 121.75 54.609 121.618 54.5994ZM122.004 53.7574C122.102 53.7576 122.197 53.7285 122.279 53.6739C122.363 53.6208 122.44 53.5577 122.508 53.486C122.56 53.4341 122.607 53.377 122.647 53.3155V51.8125C122.494 51.896 122.348 51.983 122.216 52.0699C122.092 52.1477 121.975 52.2374 121.868 52.3378C121.769 52.4297 121.689 52.5395 121.632 52.6614C121.571 52.7884 121.541 52.9278 121.545 53.0685C121.535 53.2445 121.576 53.4196 121.663 53.573C121.699 53.6308 121.749 53.6782 121.809 53.7106C121.869 53.7429 121.936 53.7591 122.004 53.7574Z" fill="#E0E0E0"/>
<path d="M126.029 54.5993C125.68 54.6231 125.333 54.5314 125.041 54.3383C124.811 54.1517 124.652 53.891 124.592 53.6007C124.511 53.2365 124.472 52.864 124.478 52.4908V51.2696C124.471 50.8857 124.512 50.5024 124.599 50.1284C124.66 49.8414 124.82 49.585 125.052 49.4047C125.341 49.2161 125.684 49.1269 126.029 49.1508C126.339 49.1341 126.647 49.1989 126.923 49.3386C127.133 49.4649 127.288 49.6645 127.358 49.8988C127.445 50.1983 127.485 50.5092 127.477 50.8208V51.1339H126.589V50.8104C126.593 50.6259 126.577 50.4416 126.541 50.2606C126.524 50.1466 126.466 50.0426 126.377 49.9684C126.275 49.8993 126.152 49.8674 126.029 49.8779C125.899 49.8692 125.769 49.9074 125.664 49.9858C125.565 50.0856 125.504 50.2176 125.493 50.3581C125.462 50.5887 125.448 50.8213 125.452 51.0539V52.724C125.429 53.0324 125.473 53.3421 125.58 53.632C125.628 53.7096 125.696 53.7722 125.777 53.8128C125.858 53.8535 125.949 53.8704 126.04 53.8617C126.166 53.869 126.291 53.828 126.388 53.7469C126.471 53.6568 126.522 53.5419 126.534 53.4198C126.557 53.262 126.569 53.1027 126.569 52.9431V52.5117H127.456V52.8805C127.462 53.1899 127.421 53.4984 127.334 53.7956C127.263 54.0387 127.106 54.2477 126.892 54.3836C126.63 54.5345 126.331 54.6092 126.029 54.5993Z" fill="#E0E0E0"/>
<path d="M90.6001 66.2617V65.5659L92.4893 62.6224L92.879 62.0066C92.9971 61.8179 93.0951 61.6173 93.1713 61.4082C93.2515 61.1731 93.2904 60.9259 93.2861 60.6775C93.2999 60.3986 93.2425 60.1208 93.1191 59.8703C93.0603 59.772 92.9749 59.6923 92.8726 59.6405C92.7704 59.5888 92.6556 59.5672 92.5415 59.5781C92.4434 59.5721 92.345 59.5859 92.2524 59.6188C92.1597 59.6517 92.0746 59.7029 92.0022 59.7694C91.8668 59.9088 91.7739 60.0837 91.7343 60.2739C91.6843 60.4942 91.6598 60.7195 91.6613 60.9454V61.1925H90.6801V60.9246C90.6706 60.5329 90.7319 60.1428 90.861 59.7729C90.967 59.4674 91.1698 59.2047 91.4386 59.0249C91.7532 58.8366 92.1161 58.7447 92.4824 58.7605C92.7293 58.7412 92.9774 58.7767 93.209 58.8646C93.4405 58.9524 93.6498 59.0903 93.8219 59.2684C94.1319 59.664 94.2888 60.1582 94.2638 60.6601C94.2686 60.9427 94.2298 61.2244 94.1489 61.4952C94.0735 61.7279 93.9732 61.9519 93.8497 62.1632C93.7279 62.3719 93.5923 62.5842 93.4461 62.8068L91.7413 65.4093H94.0863V66.2339L90.6001 66.2617Z" fill="#E0E0E0"/>
<path d="M96.0556 66.3382C95.8574 66.3402 95.6641 66.2766 95.5058 66.1573C95.3446 66.0375 95.2155 65.8797 95.1301 65.698C95.0372 65.5148 94.9894 65.312 94.9909 65.1065C94.9819 64.8191 95.0391 64.5334 95.1579 64.2715C95.2633 64.0493 95.418 63.8542 95.6102 63.7009C95.8166 63.5374 96.0421 63.3996 96.2817 63.2904C96.5357 63.1755 96.8001 63.0607 97.0819 62.9424V62.5667C97.0851 62.3886 97.0735 62.2105 97.0471 62.0343C97.0335 61.9145 96.9795 61.8029 96.8941 61.7177C96.7954 61.6403 96.6711 61.6031 96.5461 61.6134C96.4312 61.6067 96.3174 61.6386 96.2226 61.7038C96.1369 61.7702 96.0738 61.8613 96.0416 61.9648C96.0049 62.0949 95.9873 62.2297 95.9894 62.3649V62.6293L95.0153 62.5945C94.9887 62.1317 95.1294 61.6748 95.4119 61.3072C95.5702 61.1575 95.7584 61.043 95.964 60.9711C96.1697 60.8991 96.3882 60.8714 96.6053 60.8897C96.8123 60.8681 97.0215 60.8959 97.2156 60.9709C97.4098 61.0459 97.5834 61.1659 97.7221 61.3211C97.9669 61.6884 98.0831 62.1264 98.0526 62.5667V65.0021C98.0526 65.1691 98.0526 65.3257 98.0526 65.4788C98.0526 65.6319 98.0735 65.7745 98.0909 65.9068C98.1083 66.039 98.1188 66.1607 98.1327 66.2756H97.2559C97.2385 66.1781 97.2176 66.0564 97.1898 65.9068C97.162 65.7571 97.1411 65.6215 97.1272 65.4962C97.0613 65.7168 96.9418 65.9177 96.7792 66.0807C96.6831 66.1715 96.5691 66.2412 96.4445 66.2856C96.3199 66.3299 96.1874 66.3478 96.0556 66.3382ZM96.4417 65.4927C96.5396 65.4925 96.6352 65.4635 96.7166 65.4092C96.8 65.3554 96.877 65.2924 96.9462 65.2213C96.9973 65.1706 97.0428 65.1147 97.0819 65.0543V63.5478C96.9288 63.6348 96.7862 63.7183 96.6505 63.8053C96.5272 63.886 96.4109 63.9768 96.3026 64.0767C96.204 64.1681 96.1227 64.2765 96.0625 64.3968C96.0037 64.5243 95.974 64.6634 95.9755 64.8038C95.9662 64.9803 96.0085 65.1556 96.0973 65.3083C96.1343 65.3691 96.1873 65.4184 96.2505 65.451C96.3138 65.4835 96.3847 65.498 96.4557 65.4927H96.4417Z" fill="#E0E0E0"/>
<path d="M85.67 50.1735V48.6775H84.3861V47.9329H85.67V46.4403H86.4041V47.9329H87.7331V48.6775H86.4041V50.1735H85.67Z" fill="#E0E0E0"/>
<path d="M83.8712 52.5463V51.8018H88.2655V52.5463H83.8712Z" fill="#E0E0E0"/>
<path d="M109.51 52.3899V51.6454H113.904V52.3899H109.51Z" fill="#E0E0E0"/>
<path d="M93.3626 54.5296L90.3635 48.1243L90.9933 47.8321L93.3487 52.8596L97.0611 44.5929H127.358V45.2887H97.5134L93.3626 54.5296Z" fill="#E0E0E0"/>
<path d="M128.266 56.725H72.6993V57.4208H128.266V56.725Z" fill="#E0E0E0"/>
<path d="M66.642 64.7273C66.642 64.7273 70.6292 65.625 70.7579 68.391C70.8866 71.157 68.058 72.8305 68.058 72.8305C68.058 72.8305 67.0943 68.7146 66.3845 67.7473C65.6747 66.7801 65.0345 65.6911 65.0345 65.6911C65.0345 65.6911 65.6156 64.4038 66.642 64.7273Z" fill="#263238"/>
<path d="M67.9432 73.102L67.8875 72.8689C67.8875 72.8272 66.9238 68.7773 66.2453 67.8519C65.5669 66.9264 64.8919 65.7887 64.8849 65.7643L64.8397 65.6878L64.878 65.6043C65.0972 65.1137 65.7617 64.2578 66.6872 64.5431C66.9342 64.6022 70.7997 65.5347 70.9319 68.3703C71.0641 71.2058 68.2668 72.8933 68.1485 72.9664L67.9432 73.102ZM65.2329 65.6843C65.3964 65.9522 65.9287 66.8498 66.5272 67.6466C67.1534 68.5025 67.9467 71.6408 68.1694 72.5488C68.7991 72.1105 70.6883 70.6039 70.584 68.4016C70.4657 65.7956 66.642 64.9049 66.6037 64.8945C65.8383 64.6614 65.3686 65.4268 65.2329 65.6843Z" fill="#263238"/>
<path d="M47.7462 137.385H56.5835L53.6783 124.633C53.6783 124.633 51.0098 125.562 49.9625 128.234C48.9152 130.906 47.7462 137.385 47.7462 137.385Z" fill="#ED9069"/>
<path d="M56.7922 137.558H47.5374L47.5756 137.353C47.5756 137.291 48.7551 130.826 49.7954 128.168C50.8566 125.454 53.5043 124.508 53.6226 124.47L53.807 124.403L56.7922 137.558ZM47.9549 137.211H56.3573L53.5495 124.87C52.9406 125.134 50.9644 126.133 50.119 128.297C49.2039 130.656 48.1706 136.076 47.9618 137.211H47.9549Z" fill="#263238"/>
<path d="M55.6892 133.457L48.1149 135.492C47.8922 136.612 47.767 137.385 47.767 137.385H47.7878L56.0893 135.155L55.6892 133.457Z" fill="#263238"/>
<path d="M49.3988 129.981C49.2284 130.576 49.0509 131.226 48.9048 131.884L55.0039 130.447L54.6177 128.749L49.3988 129.981Z" fill="#263238"/>
<path d="M46.2084 88.1637C46.2084 88.1637 41.5531 89.4753 37.0371 93.9949C32.521 98.5144 26.9472 111.854 24.6405 117.529C22.3338 123.203 21.2761 125.934 21.2761 125.934L13.5034 137.385H47.7462C47.7462 137.385 51.7369 127.406 53.1043 126.46C54.4716 125.513 58.7789 121.731 59.4087 119.63C60.0384 117.529 60.0384 101.98 59.0921 99.0363C58.1457 96.0929 52.7877 88.9465 50.5818 88.1115C49.1612 87.6265 47.617 87.645 46.2084 88.1637Z" fill="#ED9069"/>
<path d="M47.8714 137.559H13.1729L21.1229 125.854C21.2204 125.6 22.292 122.831 24.4769 117.462C29.5671 104.972 33.7526 97.0323 36.9118 93.8731C41.313 89.4719 45.9057 88.0732 46.1492 88.0001C47.5984 87.4609 49.1901 87.4424 50.6514 87.948C52.9164 88.8108 58.3057 96.0198 59.266 98.9841C60.2263 101.948 60.268 117.386 59.5826 119.679C58.9285 121.86 54.4716 125.729 53.2086 126.602C52.1266 127.354 49.0335 134.688 47.9132 137.451L47.8714 137.559ZM13.8304 137.211H47.6348C48.0941 136.076 51.6812 127.236 53.0103 126.335C54.2524 125.475 58.6188 121.7 59.2486 119.599C59.9062 117.407 59.8296 101.893 58.9355 99.1094C58.0204 96.2703 52.6728 89.11 50.5261 88.2924C48.3794 87.4748 46.2953 88.3341 46.2745 88.3411H46.2536C46.2084 88.3411 41.5879 89.698 37.1588 94.1271C34.0275 97.2584 29.8733 105.156 24.8005 117.605C22.5146 123.203 21.45 125.987 21.4396 125.987V126.021L13.8304 137.211Z" fill="#263238"/>
<path d="M34.1771 97.7108C33.8744 98.184 33.5717 98.6815 33.2655 99.193C34.4168 99.9259 35.6426 100.535 36.9222 101.009L37.538 99.3809C36.3618 98.9445 35.2352 98.3847 34.1771 97.7108Z" fill="#263238"/>
<path d="M42.8544 116.307C47.6967 118.696 52.7795 120.562 58.017 121.874C58.4233 121.4 58.7855 120.89 59.0991 120.35C53.7729 119.065 48.6041 117.198 43.686 114.783C38.7175 112.354 34.0414 109.367 29.7481 105.88C29.4872 106.423 29.2297 106.969 28.9757 107.508C33.264 110.943 37.9184 113.894 42.8544 116.307Z" fill="#263238"/>
<path d="M33.8292 118.489C40.4034 121.73 47.411 124.004 54.6352 125.242C55.1466 124.8 55.7102 124.289 56.2704 123.743C48.7627 122.599 41.4748 120.311 34.6608 116.958C31.9377 115.619 29.298 114.117 26.7559 112.459C26.5124 113.023 26.2804 113.567 26.0601 114.091C28.5641 115.703 31.158 117.172 33.8292 118.489Z" fill="#263238"/>
<path d="M48.863 134.702C49.0926 134.163 49.3466 133.575 49.6145 132.963C33.4395 132.538 24.2682 130.082 19.6651 128.3L18.6422 129.814C23.2522 131.679 32.4374 134.226 48.863 134.702Z" fill="#263238"/>
<path d="M23.8333 119.512C23.6013 120.099 23.381 120.645 23.1722 121.151C26.2814 122.677 29.4936 123.984 32.7854 125.061C38.8226 127.037 45.0275 128.458 51.3229 129.306C51.6325 128.69 51.9317 128.13 52.2066 127.667C38.2861 125.781 28.8504 122.003 23.8333 119.512Z" fill="#263238"/>
<path d="M58.1386 101.305C58.1386 101.305 58.4309 100.647 58.8692 100.793C59.3076 100.939 60.4767 103.577 60.4767 103.577C60.4767 103.577 60.4036 98.9772 58.577 95.6893C56.7504 92.4014 56.1693 91.5142 56.1693 91.5142C56.1693 91.5142 55.2926 91.8795 55.6579 93.4138C56.0232 94.9482 58.1386 101.305 58.1386 101.305Z" fill="white"/>
<path d="M60.6646 104.415L60.3167 103.636C59.7774 102.422 59.0468 101.051 58.8136 100.957C58.5805 100.863 58.3022 101.367 58.2987 101.374L58.1143 101.778L57.9751 101.357C57.8882 101.096 55.8493 94.9795 55.4875 93.4556C55.0943 91.7995 56.0616 91.368 56.1033 91.368L56.2355 91.3124L56.3121 91.4307C56.3364 91.4689 56.9209 92.3527 58.7301 95.6058C60.5394 98.8589 60.6507 103.528 60.6507 103.573L60.6646 104.415ZM58.7406 100.588C58.8033 100.589 58.8656 100.599 58.925 100.619C59.2729 100.731 59.8435 101.813 60.2506 102.658C60.1288 101.162 59.7287 98.1004 58.4274 95.7589C57.0149 93.2155 56.3399 92.1126 56.1137 91.7508C55.9224 91.9108 55.5849 92.3492 55.825 93.3686C56.1381 94.6699 57.742 99.5408 58.1909 100.891C58.2551 100.804 58.3375 100.731 58.4324 100.679C58.5274 100.627 58.6325 100.596 58.7406 100.588Z" fill="#263238"/>
<path d="M49.0857 80.4327C49.0857 80.4327 48.4559 82.6803 47.8262 84.8375C47.5043 86.0393 46.9551 87.1684 46.2083 88.1636C46.2083 88.1636 45.3977 90.2303 48.8143 94.7255C52.2309 99.2207 57.9821 105.243 57.9821 105.243C57.9821 105.243 58.4344 102.279 57.8952 99.9409C57.3559 97.6029 56.2773 94.0958 56.2773 94.0958L58.8798 88.435L49.0857 80.4327Z" fill="white"/>
<path d="M58.1039 105.619L57.8568 105.365C57.8012 105.303 52.0569 99.2834 48.6751 94.8334C45.2411 90.3104 46.01 88.1881 46.0448 88.1011L46.0726 88.0524C46.802 87.074 47.3403 85.9668 47.6592 84.7888C48.2785 82.6561 48.9117 80.4085 48.9152 80.3876L48.9882 80.1301L59.0989 88.3829L56.4617 94.1098C56.6113 94.5969 57.5681 97.756 58.0621 99.9027C58.6049 102.244 58.1735 105.149 58.1561 105.271L58.1039 105.619ZM46.3544 88.2507C46.2883 88.4803 45.8325 90.5261 48.9465 94.6212C51.9108 98.5249 56.7017 103.643 57.8499 104.857C57.9473 104.001 58.1352 101.785 57.7177 99.9862C57.1853 97.6829 56.1137 94.1898 56.1033 94.155L56.0824 94.0924L58.6605 88.4908L49.1726 80.7425C48.9882 81.3931 48.4768 83.178 47.9862 84.8932C47.6569 86.1045 47.1034 87.2434 46.3544 88.2507Z" fill="#263238"/>
<path d="M53.0485 86.5215L56.6287 93.0277L58.5179 89.2562L52.0117 85.1993L53.0485 86.5215Z" fill="#263238"/>
<path d="M56.6391 93.4L52.9023 86.6155L51.2601 84.528L58.744 89.1901L56.6391 93.4ZM52.7597 85.871L53.2015 86.4381L56.6217 92.652L58.2882 89.3189L52.7597 85.871Z" fill="#263238"/>
<path d="M66.3217 65.305C66.3217 65.305 68.5728 70.6422 68.6354 71.7381C68.698 72.8341 68.1866 74.0518 68.4441 76.1115C68.7015 78.1713 69.2791 81.1913 68.8303 82.5412C68.3814 83.8912 67.1393 85.0776 66.2417 86.1144C64.5473 88.0663 62.6859 90.5713 59.7807 90.3139C57.9158 90.1468 56.1623 88.8004 54.7428 87.687C51.1417 84.8584 49.4056 83.0561 48.828 81.8349C48.2505 80.6137 45.0948 77.3954 46.3195 75.0156C47.5442 72.6358 57.9611 66.5923 57.9611 66.5923C57.9611 66.5923 64.6482 62.9878 66.3217 65.305Z" fill="white"/>
<path d="M60.1982 90.4981C60.0556 90.4981 59.9129 90.4981 59.7633 90.4773C57.801 90.3033 55.9709 88.8664 54.6349 87.8191C51.1974 85.1157 49.3012 83.2369 48.668 81.9044C48.4501 81.5085 48.2048 81.1283 47.9339 80.7667C46.8379 79.2045 45.1818 76.8421 46.1629 74.9354C47.3946 72.5348 57.4461 66.6861 57.8741 66.4356C58.1559 66.286 64.7212 62.7894 66.4609 65.2005L66.4818 65.2353C66.5722 65.451 68.7467 70.6107 68.8094 71.7241C68.82 72.1904 68.7839 72.6567 68.7015 73.1158C68.5323 74.0925 68.5041 75.0884 68.618 76.0732C68.6667 76.4628 68.7259 76.8873 68.7885 77.3257C69.0634 79.2601 69.373 81.4486 68.9938 82.5828C68.6145 83.7171 67.6891 84.7469 66.868 85.655L66.3704 86.2152L65.9494 86.7092C64.4255 88.501 62.7068 90.4981 60.1982 90.4981ZM64.3733 64.689C61.8787 64.689 58.0863 66.7105 58.0341 66.7383C57.9819 66.7662 47.652 72.7818 46.4656 75.0885C45.5819 76.8282 47.1615 79.0688 48.2052 80.5614C48.4888 80.9402 48.7446 81.339 48.9707 81.7548C49.5691 83.0177 51.4897 84.9139 54.8367 87.5443C56.1379 88.5672 57.9193 89.9797 59.7807 90.1328C62.3588 90.3624 64.1159 88.3027 65.6711 86.49L66.0956 85.9925C66.2521 85.8116 66.4226 85.6237 66.5966 85.4323C67.3933 84.5486 68.2944 83.5466 68.6493 82.4785C69.0042 81.4103 68.6841 79.1836 68.4301 77.3814C68.3675 76.9395 68.3049 76.515 68.2562 76.1253C68.1404 75.1093 68.1696 74.0819 68.3432 73.074C68.4212 72.6331 68.4561 72.1857 68.4475 71.738C68.3884 70.7186 66.3008 65.7328 66.1547 65.3849C65.7963 64.8874 65.1422 64.696 64.3803 64.696L64.3733 64.689Z" fill="#263238"/>
<path d="M57.3314 74.1457L57.0461 73.9439C58.6466 71.6755 61.2212 72.587 61.2212 72.594L61.103 72.921C61.0194 72.8932 58.7753 72.1034 57.3314 74.1457Z" fill="#263238"/>
<path d="M65.0518 72.9279L64.7631 72.7331C64.7631 72.7331 65.6364 71.4632 67.6752 72.3469L67.5395 72.667C65.7755 71.905 65.0797 72.8862 65.0518 72.9279Z" fill="#263238"/>
<path d="M63.1174 81.5565L63.093 81.2086C63.9141 81.1425 65.8381 80.5128 66.1826 80.0535C66.287 79.9178 66.0956 79.6743 65.7477 79.2568C65.2065 78.6502 64.7787 77.9514 64.4847 77.1936C64.0915 76.0121 64.0684 74.7387 64.4186 73.5438L64.7665 73.6517C64.4487 74.7752 64.4705 75.9676 64.8292 77.0787C65.1107 77.7978 65.5197 78.4602 66.0365 79.0341C66.4366 79.5177 66.7323 79.9004 66.4783 80.2623C66.0191 80.8572 63.9489 81.4939 63.1174 81.5565Z" fill="#263238"/>
<path d="M62.2616 84.5835C59.5095 84.4548 57.8882 82.2907 57.8186 82.1967L58.1004 81.9915C58.1004 82.0123 59.6939 84.1138 62.2755 84.2391L62.2616 84.5835Z" fill="#263238"/>
<path d="M59.3426 76.7865C59.3426 77.444 59.0677 77.9764 58.7302 77.9764C58.3927 77.9764 58.1213 77.444 58.1213 76.7865C58.1213 76.1289 58.3927 75.5966 58.7302 75.5966C59.0677 75.5966 59.3426 76.1289 59.3426 76.7865Z" fill="#263238"/>
<path d="M65.9044 76.1742C65.9044 76.8317 65.6295 77.3641 65.292 77.3641C64.9545 77.3641 64.6797 76.8317 64.6797 76.1742C64.6797 75.5166 64.9545 74.9843 65.292 74.9843C65.6295 74.9843 65.9044 75.5166 65.9044 76.1742Z" fill="#263238"/>
<path d="M65.6156 57.1358C63.9421 55.9145 61.4962 56.7496 61.4962 56.7496C61.9664 56.4153 62.5002 56.1811 63.0645 56.0614C63.6289 55.9417 64.2118 55.9391 64.7771 56.0537C64.7771 56.0537 63.1697 54.8951 62.0111 55.4762C61.1281 55.922 60.3242 56.5097 59.6313 57.2158C59.1825 57.6646 59.2451 58.3083 56.0964 57.4733C52.9477 56.6382 47.1547 57.2158 44.0686 61.4605C40.9825 65.7052 40.7216 71.8808 40.144 73.2899C39.5665 74.699 37.0579 77.6007 38.9228 80.9443C39.1197 81.3255 39.4184 81.6446 39.7857 81.8663C40.4607 82.5621 41.501 82.9866 42.7187 83.8982C44.8549 85.5021 46.7511 86.2745 47.8262 84.848C48.9013 83.4215 47.955 81.7584 47.8471 80.4781C47.7392 79.1977 49.0196 77.4059 49.0196 77.4059C49.0196 77.4059 50.5644 77.7921 51.6569 76.8283C52.7494 75.8646 52.9442 74.4485 52.4919 72.5836C52.0396 70.7188 54.4229 71.1676 57.8326 71.3624C61.2422 71.5573 62.3347 68.2729 62.7035 67.3091C63.0723 66.3454 65.0172 67.4378 66.9482 65.2494C68.8792 63.0609 67.2857 58.357 65.6156 57.1358Z" fill="#263238"/>
<path d="M46.3544 85.756C45.3906 85.756 44.1485 85.1819 42.6107 84.0164C42.0853 83.6232 41.5913 83.3205 41.1529 83.0491C40.6204 82.7527 40.1242 82.3955 39.6742 81.9845C39.2896 81.7456 38.976 81.408 38.7661 81.0068C37.2144 78.2234 38.5817 75.7879 39.4863 74.1596C39.6675 73.8495 39.8324 73.5301 39.9804 73.2028C40.1831 72.537 40.3343 71.8565 40.4327 71.1675C40.8885 68.6555 41.6504 64.456 43.9119 61.3316C47.1511 56.8782 53.1215 56.4816 56.1241 57.2783C58.7509 57.9742 59.0293 57.6262 59.3215 57.2783C59.3772 57.2122 59.4329 57.1461 59.4955 57.08C60.2053 56.3617 61.028 55.7646 61.931 55.3125C63.1696 54.6932 64.8083 55.8553 64.8744 55.904L65.5285 56.3737L64.7387 56.2171C64.0757 56.085 63.39 56.122 62.7451 56.325C63.7835 56.182 64.8385 56.4219 65.7129 57C66.7915 57.7863 67.7622 59.8356 67.971 61.7631C68.0858 62.8068 68.0266 64.2994 67.0907 65.3606C66.6888 65.8293 66.1968 66.2125 65.644 66.4874C65.0911 66.7623 64.4887 66.9234 63.8724 66.9611C63.2983 67.0306 62.9922 67.0828 62.8773 67.3681L62.8147 67.5282C62.3659 68.6728 61.1795 71.7033 57.8185 71.5293L56.5033 71.4423C54.6489 71.3136 53.1841 71.2127 52.7492 71.7242C52.6701 71.8421 52.6206 71.9773 52.6049 72.1184C52.5891 72.2595 52.6076 72.4024 52.6588 72.5348C53.1528 74.5771 52.8675 75.9828 51.7681 76.95C50.7869 77.8163 49.4927 77.6667 49.0925 77.5937C48.842 77.9694 47.9305 79.4133 48.0175 80.4536C48.0609 80.8285 48.133 81.1996 48.2332 81.5635C48.4941 82.6316 48.7898 83.8459 47.9618 84.9453C47.7805 85.2015 47.5392 85.4093 47.2589 85.5507C46.9787 85.692 46.6681 85.7625 46.3544 85.756ZM53.3372 57.3061C50.3416 57.3061 46.5388 58.3499 44.2042 61.5473C41.9775 64.6091 41.226 68.7598 40.7737 71.2405C40.6732 71.9481 40.5149 72.6463 40.3005 73.3281C40.1483 73.6689 39.9775 74.0011 39.789 74.3232C38.9227 75.8714 37.611 78.2164 39.0688 80.8328C39.2542 81.1846 39.5306 81.4801 39.869 81.6887L39.9073 81.7166C40.3392 82.1205 40.8182 82.4709 41.3338 82.7603C41.7792 83.0317 42.2836 83.3449 42.816 83.745C45.2515 85.5785 46.8067 85.8917 47.6869 84.7296C48.4176 83.7624 48.1531 82.6803 47.8992 81.6365C47.7937 81.257 47.7192 80.8696 47.6765 80.478C47.5652 79.1454 48.8246 77.3675 48.8768 77.291L48.9464 77.197L49.0612 77.2249C49.0612 77.2249 50.533 77.5728 51.5419 76.6821C52.5509 75.7914 52.784 74.5145 52.3248 72.6114C52.2584 72.4261 52.2385 72.2273 52.2671 72.0325C52.2956 71.8378 52.3716 71.653 52.4883 71.4945C53.0345 70.8439 54.4993 70.9483 56.5312 71.0875C56.9452 71.1188 57.3836 71.1466 57.8429 71.1744C60.9498 71.3484 62.0702 68.478 62.4946 67.396L62.5573 67.229C62.7521 66.7419 63.2531 66.6792 63.8307 66.6062C64.406 66.5766 64.9693 66.4295 65.4857 66.174C66.0021 65.9185 66.4607 65.56 66.8333 65.1205C67.6857 64.1568 67.7379 62.779 67.63 61.7944C67.4317 59.9817 66.5027 57.9985 65.5111 57.2713C63.935 56.1162 61.5761 56.8991 61.5552 56.9234L60.6297 57.2365L61.3882 56.6207C62.1312 56.0803 63.0268 55.7903 63.9455 55.7927H63.9663C63.4305 55.5456 62.686 55.3299 62.091 55.6257C61.2249 56.0625 60.4363 56.6384 59.7565 57.3305C59.7008 57.3862 59.6556 57.4453 59.6068 57.501C59.1789 58.0368 58.6988 58.336 56.051 57.6332C55.1651 57.4098 54.2544 57.2999 53.3407 57.3061H53.3372Z" fill="#263238"/>
<path d="M49.7257 78.0391C49.7257 78.0391 47.6034 75.0156 46.3195 75.0156C45.0357 75.0156 44.4547 77.7816 45.3523 79.7126C46.25 81.6436 48.5706 82.2838 48.9568 82.2838C49.2488 82.2436 49.5192 82.1078 49.7257 81.8976" fill="white"/>
<path d="M48.957 82.4578C48.4455 82.4578 46.1179 81.7619 45.1959 79.7857C44.5 78.2792 44.6775 76.4317 45.262 75.5167C45.3625 75.3233 45.5115 75.1593 45.6945 75.041C45.8775 74.9227 46.0882 74.854 46.3058 74.8417C47.6662 74.8417 49.7676 77.813 49.8546 77.9417L49.5693 78.14C48.9952 77.3189 47.2834 75.1896 46.3058 75.1896C46.1454 75.2049 45.9914 75.26 45.8577 75.3499C45.724 75.4399 45.6149 75.5617 45.5403 75.7045C45.0184 76.5222 44.8445 78.2583 45.4986 79.6396C46.3997 81.574 48.7065 82.1098 48.943 82.1098C49.1911 82.0681 49.4186 81.9458 49.5902 81.7619L49.8372 82.0089C49.6023 82.2528 49.2923 82.4108 48.957 82.4578Z" fill="#263238"/>
<path d="M46.7511 86.264C46.7511 86.264 47.4782 88.8944 50.1086 93.0555C52.7389 97.2167 56.7539 101.013 56.7539 101.013C56.7539 101.013 56.0233 104.739 56.0233 104.955C56.0233 105.17 52.9546 103.935 49.3779 98.3858C45.8012 92.8364 44.413 89.6215 44.7053 88.6752C44.9975 87.7288 46.7511 86.264 46.7511 86.264Z" fill="white"/>
<path d="M56.0095 105.149C55.491 105.149 52.5302 103.608 49.2319 98.4796C45.9335 93.3512 44.1974 89.7327 44.5384 88.6229C44.8411 87.6348 46.5668 86.1874 46.6259 86.1317L46.8312 85.9578L46.9043 86.2187C46.9043 86.2431 47.6593 88.8734 50.2409 92.9615C52.8225 97.0496 56.8166 100.849 56.8514 100.887L56.921 100.953L56.9036 101.047C56.6253 102.463 56.1834 104.777 56.1765 104.958V105.083L56.0373 105.142L56.0095 105.149ZM46.6642 86.5701C46.2049 86.9772 45.0881 88.021 44.8724 88.7238C44.6358 89.4927 45.7317 92.4118 49.5241 98.2917C52.6137 103.083 55.2614 104.575 55.8703 104.781C55.9747 104.085 56.427 101.774 56.5661 101.072C56.0199 100.546 52.391 96.98 49.9556 93.1459C47.8123 89.7467 46.9182 87.3355 46.6642 86.5701Z" fill="#263238"/>
<path d="M38.9228 80.9339C38.9228 80.9339 33.0081 78.7559 30.3152 80.4677C27.6222 82.1794 29.7828 88.6961 31.599 91.2533C33.4152 93.8106 29.4627 92.9616 27.1108 95.8494C24.7588 98.7372 25.9348 100.553 28.2867 101.942C30.6387 103.33 33.523 100.446 34.699 98.2014C35.875 95.9573 37.2667 95.6372 40.2658 94.4612C43.2649 93.2852 46.3545 89.8721 45.175 87.628C43.9956 85.3838 44.6427 85.7039 45.0672 85.0637C45.4917 84.4236 43.1432 81.8559 41.6471 81.5358C40.151 81.2157 38.9228 80.9339 38.9228 80.9339Z" fill="#263238"/>
<path d="M29.6019 102.491C29.1112 102.49 28.6301 102.355 28.2102 102.102C26.7176 101.221 25.9 100.278 25.7121 99.2208C25.5242 98.1631 25.9417 97.0358 26.989 95.7415C28.0362 94.4472 29.341 93.9149 30.3952 93.473C31.1606 93.153 31.766 92.899 31.8808 92.4989C31.9574 92.2275 31.8251 91.8552 31.4703 91.3577C30.1168 89.4441 28.4572 85.1298 29.0035 82.3325C29.0569 81.9289 29.194 81.5409 29.4061 81.1934C29.6182 80.8459 29.9006 80.5465 30.2351 80.3145C32.9211 78.5958 38.6166 80.6277 38.9854 80.7599C39.1072 80.7877 40.2832 81.0556 41.6993 81.3583C42.9274 81.6227 44.7784 83.3763 45.2133 84.4479C45.2694 84.5553 45.2987 84.6746 45.2987 84.7958C45.2987 84.917 45.2694 85.0363 45.2133 85.1437C45.1242 85.2725 45.0189 85.3895 44.9002 85.4916C44.6323 85.7387 44.4687 85.8883 45.3281 87.534C45.504 87.9037 45.5984 88.3069 45.605 88.7162C45.6116 89.1256 45.5302 89.5316 45.3664 89.9068C44.6705 91.7613 42.5552 93.734 40.3215 94.6177L39.4169 94.9656C37.0579 95.8737 35.875 96.326 34.8521 98.2744C34.0136 99.8749 32.2948 101.83 30.4961 102.342C30.2064 102.433 29.9055 102.483 29.6019 102.491ZM33.1333 79.9875C32.1824 79.9375 31.2363 80.1544 30.4021 80.6137C30.1078 80.8219 29.8599 81.089 29.6743 81.3981C29.4886 81.7071 29.3692 82.0514 29.3236 82.409C28.8156 85.008 30.3847 89.2597 31.7347 91.1628C32.1592 91.7613 32.3053 92.2066 32.1939 92.5998C32.0339 93.1634 31.3624 93.4452 30.51 93.8036C29.4906 94.228 28.2206 94.7604 27.236 95.9712C26.2514 97.1819 25.8652 98.2153 26.0322 99.1582C26.1992 100.101 26.9646 100.974 28.3668 101.802C28.6695 101.98 29.0064 102.092 29.3554 102.13C29.7044 102.169 30.0576 102.133 30.3917 102.025C32.093 101.541 33.7318 99.6661 34.539 98.1318C35.621 96.0651 36.9222 95.5676 39.2847 94.6525L40.1893 94.3046C42.3012 93.4731 44.3852 91.5212 45.0324 89.7816C45.1807 89.4531 45.2559 89.0963 45.2529 88.7359C45.2499 88.3755 45.1687 88.02 45.015 87.694C44.1139 85.9753 44.2008 85.6552 44.6671 85.2377C44.764 85.1532 44.8505 85.0575 44.9245 84.9524C44.9663 84.8897 44.9489 84.7471 44.8758 84.5696C44.4757 83.585 42.7187 81.9289 41.6123 81.6923C40.1127 81.3722 38.8845 81.0904 38.8845 81.0904H38.8602C38.8184 81.0834 35.7915 79.9875 33.1333 79.9875Z" fill="#263238"/>
<path d="M97.2247 86.6711L97.9797 84.6949C98.0543 84.648 98.1378 84.6168 98.225 84.6033C98.3121 84.5898 98.4011 84.5943 98.4865 84.6165C98.5719 84.6386 98.6518 84.678 98.7214 84.7321C98.791 84.7863 98.8488 84.8541 98.8912 84.9315L98.7938 88.1463L98.171 90.8705C98.0734 91.0802 97.9175 91.2573 97.722 91.3808C97.5264 91.5042 97.2994 91.5686 97.0681 91.5664C96.4872 91.5531 95.9348 91.312 95.5303 90.8949L97.2247 86.6711Z" fill="white"/>
<path d="M96.9846 91.7334C96.3852 91.696 95.8216 91.4353 95.405 91.0027L95.3285 90.9227L97.0681 86.6084L97.8475 84.5835L97.8892 84.5522C97.9823 84.4921 98.0867 84.4516 98.1959 84.433C98.3051 84.4145 98.417 84.4184 98.5247 84.4444C98.6324 84.4704 98.7337 84.5181 98.8224 84.5845C98.9112 84.6508 98.9855 84.7346 99.0408 84.8305L99.0791 84.8792L98.9782 88.1567L98.3485 90.9158C98.2418 91.1602 98.0654 91.3678 97.8414 91.5126C97.6174 91.6574 97.3557 91.733 97.089 91.7299L96.9846 91.7334ZM95.7356 90.8462C96.0929 91.1856 96.5649 91.3781 97.0577 91.3854C97.2542 91.392 97.4484 91.3417 97.6169 91.2405C97.7854 91.1392 97.9211 90.9914 98.0075 90.8149L98.6268 88.1149L98.7173 84.9836C98.6566 84.8859 98.5623 84.8136 98.4522 84.7803C98.342 84.747 98.2235 84.7549 98.1188 84.8027L97.3847 86.7267L95.7356 90.8462Z" fill="#263238"/>
<path d="M37.5625 109.231C37.5625 109.231 52.2693 122.678 58.1527 126.039C64.0361 129.4 66.663 128.036 66.663 128.036C66.663 128.036 82.7058 115.344 88.0986 108.072C92.1902 102.55 93.7559 100.647 94.4935 100.539C95.2311 100.432 101.007 97.0602 101.323 96.6531C101.64 96.246 101.532 91.3994 101.532 91.3994C101.532 91.3994 102.576 90.2443 102.478 89.719C102.381 89.1936 100.165 87.1965 99.6428 86.6711C99.1209 86.1458 99.0096 85.4116 98.599 86.1458C98.1885 86.8799 98.178 87.3044 98.4912 87.6175C98.8043 87.9306 98.7034 88.6613 98.7034 88.6613L98.3868 89.5032L98.178 90.8671C98.063 91.0272 97.8984 91.1449 97.7097 91.2021C97.5211 91.2594 97.3189 91.2529 97.1343 91.1837C96.6459 91.0204 96.2099 90.7297 95.8713 90.3417L97.2247 86.6711C97.2247 86.6711 96.0696 86.2536 95.8574 87.0921C95.6451 87.9306 96.174 87.6175 95.1232 88.3551C94.0725 89.0927 93.0357 89.9312 93.0357 90.9819C93.0357 92.0327 91.2369 97.4951 91.2369 97.4951C91.2369 97.4951 83.5199 102.919 80.5313 104.711C78.4437 105.953 65.1947 112.592 65.1947 112.592C65.1947 112.592 51.7439 100.936 50.0635 98.7233C48.383 96.5105 45.6518 93.8906 40.5025 95.6754" fill="#ED9069"/>
<path d="M65.0103 128.485C63.6186 128.485 61.3327 128.057 58.0518 126.188C52.2171 122.855 37.5729 109.488 37.4268 109.356L37.6633 109.102C37.8095 109.234 52.4223 122.573 58.2223 125.889C63.9317 129.149 66.5411 127.893 66.5725 127.879C66.7047 127.771 82.6327 115.138 87.9455 107.971C92.3398 102.056 93.6793 100.48 94.4587 100.369C95.1754 100.268 100.906 96.8896 101.174 96.5417C101.348 96.2773 101.4 93.72 101.348 91.3959V91.3298L101.393 91.2776C101.803 90.8253 102.357 90.0494 102.297 89.7467C102.224 89.3779 100.655 87.8853 99.9837 87.2486C99.7784 87.0538 99.6114 86.9007 99.5071 86.7893C99.3576 86.632 99.2237 86.4608 99.1069 86.2779C99.0466 86.1768 98.9729 86.0843 98.8877 86.003C98.8298 86.0731 98.7775 86.1475 98.7312 86.2257C98.2858 87.0051 98.4041 87.2938 98.599 87.4887C98.9643 87.854 98.8704 88.602 98.8564 88.6855V88.7238L98.5468 89.5484L98.3172 90.9401C98.1809 91.1336 97.9848 91.2769 97.7591 91.3479C97.5334 91.419 97.2906 91.4138 97.0681 91.3332C96.547 91.1601 96.0819 90.85 95.7216 90.4356L95.6555 90.3591L96.9916 86.765C96.7503 86.6941 96.4926 86.7039 96.2574 86.7928C96.1979 86.8254 96.1461 86.8707 96.1059 86.9254C96.0656 86.98 96.0378 87.0429 96.0243 87.1094C95.9805 87.2655 95.9652 87.4281 95.9791 87.5896C96.0035 87.9097 95.913 87.9862 95.2206 88.4733C94.2395 89.1692 93.1922 89.9729 93.1922 90.9575C93.1922 92.0221 91.47 97.3002 91.3969 97.5228L91.3795 97.5785L91.3343 97.6133C91.2543 97.6655 83.5756 103.062 80.6182 104.836C78.562 106.068 65.3999 112.654 65.2677 112.724L65.1634 112.772L65.0764 112.699C64.5267 112.223 51.5943 100.999 49.9208 98.8032C48.1811 96.5069 45.5265 94.0923 40.5581 95.8145L40.4433 95.4875C45.683 93.6713 48.5186 96.3886 50.1852 98.591C51.7648 100.679 64.0361 111.346 65.2016 112.358C66.4542 111.732 78.4785 105.706 80.4268 104.537C83.252 102.843 90.4158 97.8186 91.0699 97.3593C91.2577 96.7852 92.8304 91.9108 92.8304 90.9575C92.8304 89.8059 93.9542 88.9221 95.0049 88.1741C95.6277 87.7392 95.6277 87.7253 95.6173 87.6035C95.6011 87.4046 95.6199 87.2044 95.6729 87.012C95.6971 86.8978 95.7461 86.7903 95.8165 86.6971C95.8868 86.6039 95.9768 86.5273 96.08 86.4727C96.4625 86.3294 96.8839 86.3294 97.2664 86.4727L97.4299 86.5319L96.0382 90.2721C96.3433 90.5982 96.7247 90.8433 97.1481 90.9853C97.2923 91.0421 97.4507 91.0518 97.6007 91.013C97.7506 90.9743 97.8845 90.8891 97.9832 90.7696L98.1954 89.4092L98.505 88.5881C98.5617 88.2835 98.5035 87.9686 98.3415 87.7044C97.844 87.2034 98.1223 86.5423 98.4181 86.0239C98.5294 85.8291 98.6686 85.6342 98.8738 85.6238C99.0791 85.6134 99.2218 85.8186 99.3853 86.0517C99.486 86.2158 99.6025 86.3697 99.7332 86.511C99.8341 86.6154 100.001 86.7719 100.203 86.9633C101.671 88.355 102.537 89.2492 102.618 89.6458C102.725 90.1886 101.922 91.1384 101.675 91.4272C101.702 92.6484 101.751 96.2981 101.431 96.7191C101.111 97.1401 95.3076 100.546 94.4726 100.675C93.7593 100.776 91.8805 103.163 88.1925 108.138C82.8484 115.344 66.8891 128.008 66.7255 128.133C66.1876 128.378 65.6012 128.498 65.0103 128.485Z" fill="#263238"/>
<path d="M84.9741 101.806L89.3023 106.433C92.4997 102.168 93.8253 100.633 94.4794 100.539C95.2136 100.435 100.993 97.0602 101.309 96.6531C101.626 96.246 101.518 91.3994 101.518 91.3994C101.518 91.3994 102.562 90.2443 102.464 89.719C102.367 89.1936 100.151 87.1965 99.6287 86.6711C99.1068 86.1458 98.9955 85.4116 98.585 86.1458C98.1744 86.8799 98.164 87.3044 98.4771 87.6175C98.7902 87.9306 98.6893 88.6613 98.6893 88.6613L98.3727 89.5032L98.164 90.8671C98.0489 91.0272 97.8843 91.1449 97.6957 91.2021C97.507 91.2594 97.3048 91.2529 97.1202 91.1837C96.6318 91.0204 96.1958 90.7297 95.8572 90.3417L97.2246 86.6711C97.2246 86.6711 96.0695 86.2536 95.8572 87.0921C95.645 87.9306 96.1738 87.6175 95.1231 88.3551C94.0724 89.0927 93.0356 89.9312 93.0356 90.9819C93.0356 92.0327 91.2368 97.4951 91.2368 97.4951C91.2368 97.4951 88.0567 99.7288 84.9741 101.806Z" fill="white"/>
<path d="M89.3335 106.705L84.7235 101.775L84.8905 101.66C87.7191 99.7461 90.68 97.6725 91.0871 97.3837C91.2749 96.8097 92.8476 91.9352 92.8476 90.9819C92.8476 89.8303 93.9714 88.9465 95.0221 88.1985C95.6449 87.7636 95.6449 87.7497 95.6345 87.6279C95.6182 87.429 95.6371 87.2288 95.6901 87.0364C95.7143 86.9222 95.7633 86.8147 95.8337 86.7215C95.904 86.6283 95.994 86.5517 96.0972 86.4971C96.4797 86.3539 96.9011 86.3539 97.2836 86.4971L97.4471 86.5563L96.0554 90.2965C96.3605 90.6226 96.7419 90.8677 97.1653 91.0097C97.3095 91.0665 97.4679 91.0762 97.6178 91.0374C97.7678 90.9987 97.9017 90.9135 98.0003 90.794L98.2126 89.4336L98.5222 88.6125C98.5789 88.3079 98.5207 87.993 98.3587 87.7288C97.8612 87.2278 98.1395 86.5667 98.4352 86.0483C98.5466 85.8535 98.6858 85.6586 98.891 85.6482C99.0963 85.6378 99.239 85.8431 99.4025 86.0762C99.5032 86.2402 99.6197 86.3941 99.7504 86.5354C99.8513 86.6398 100.018 86.7964 100.22 86.9912C101.688 88.3829 102.555 89.2736 102.635 89.6702C102.743 90.213 101.939 91.1628 101.692 91.4516C101.72 92.6728 101.768 96.3226 101.448 96.7436C101.128 97.1645 95.3248 100.571 94.4898 100.699C93.8357 100.793 92.1378 102.905 89.4275 106.524L89.3335 106.705ZM85.2558 101.834L89.3022 106.155C92.5553 101.816 93.7696 100.459 94.4689 100.358C95.1682 100.258 100.916 96.8792 101.184 96.5313C101.358 96.2669 101.41 93.7096 101.358 91.3855V91.3194L101.403 91.2672C101.814 90.8149 102.367 90.039 102.308 89.7363C102.235 89.3675 100.665 87.8749 99.994 87.2382C99.7922 87.0434 99.6217 86.8903 99.5173 86.779C99.3689 86.6208 99.235 86.4496 99.1172 86.2675C99.0568 86.1664 98.9831 86.074 98.898 85.9927C98.8401 86.0627 98.7877 86.1371 98.7414 86.2153C98.2961 86.9947 98.4144 87.2835 98.6092 87.4783C98.9745 87.8436 98.8806 88.5917 98.8667 88.6752V88.7134L98.557 89.538L98.3274 90.9297C98.1911 91.1232 97.9951 91.2665 97.7694 91.3375C97.5436 91.4086 97.3008 91.4034 97.0783 91.3229C96.5572 91.1497 96.0922 90.8397 95.7319 90.4252L95.6658 90.3487L97.0018 86.7546C96.7606 86.6837 96.5028 86.6935 96.2677 86.7824C96.2081 86.8151 96.1564 86.8603 96.1161 86.915C96.0758 86.9697 96.048 87.0325 96.0346 87.0991C95.9907 87.2551 95.9754 87.4177 95.9893 87.5792C96.0137 87.8993 95.9232 87.9758 95.2309 88.4629C94.2497 89.1588 93.2024 89.9625 93.2024 90.9471C93.2024 92.0118 91.4802 97.2898 91.4072 97.5125L91.3898 97.5681L91.3445 97.6029C91.3063 97.6586 88.2376 99.8157 85.2558 101.834Z" fill="#263238"/>
<path d="M101.401 91.2867L100.344 92.548L100.61 92.7715L101.668 91.5103L101.401 91.2867Z" fill="#263238"/>
<path d="M98.7833 88.8177L98.6058 88.5185C98.6511 88.4942 99.6809 87.8992 100.391 88.4455L100.178 88.7203C99.6531 88.3167 98.7937 88.8143 98.7833 88.8177Z" fill="#263238"/>
<path d="M87.3645 109.102L81.8429 103.587L85.0125 101.58L89.5355 106.426L87.3645 109.102ZM82.4031 103.646L87.3401 108.59L89.0797 106.451L84.9742 102.029L82.4031 103.646Z" fill="#263238"/>
<path d="M58.904 107.06L57.5889 105.884C54.2731 107.971 49.9067 112.073 49.176 119.345C49.7292 119.801 50.279 120.253 50.8252 120.691C51.107 112.936 55.7101 108.938 58.904 107.06Z" fill="#263238"/>
<path d="M53.313 101.98C52.8538 101.552 52.4258 101.145 52.0361 100.769C48.6926 102.808 44.1104 106.924 43.3589 114.387L45.0011 115.81C45.2655 107.825 50.1052 103.789 53.313 101.98Z" fill="#263238"/>
<path d="M65.1947 112.591C65.1947 112.591 64.2101 111.739 62.7592 110.455C59.4817 112.793 55.665 117.01 55.2371 124.097C55.8355 124.532 56.4026 124.925 56.928 125.273C56.9662 118.04 60.696 113.931 63.8273 111.753C62.6374 115.834 61.2005 121.568 60.5568 127.236C61.1076 127.472 61.6709 127.677 62.2443 127.851C62.8392 122.302 64.2588 116.579 65.4452 112.47L65.1947 112.591Z" fill="#263238"/>
<path d="M73.9519 108.166L72.3723 108.973C74.4247 112.183 75.9658 115.693 76.9406 119.376C77.4254 118.947 77.9101 118.512 78.3949 118.071C77.3899 114.576 75.894 111.241 73.9519 108.166Z" fill="#263238"/>
<path d="M83.7843 112.957C84.2157 112.518 84.632 112.086 85.0333 111.659C83.5694 109.291 81.8899 107.063 80.0162 105.003C79.6126 105.229 79.0629 105.522 78.4227 105.859C80.4464 108.037 82.2428 110.415 83.7843 112.957Z" fill="#263238"/>
<path d="M71.3251 124.222C70.8623 119.084 70.0621 114.164 69.3732 110.49L67.7554 111.304C68.6406 116.024 69.2886 120.784 69.6968 125.569C70.1943 125.165 70.7406 124.713 71.3251 124.222Z" fill="#263238"/>
<path d="M48.3689 96.8687C47.8878 96.4507 47.3574 96.0931 46.7893 95.8041C43.4458 97.7699 38.6479 101.875 37.8407 109.484C38.1538 109.77 38.721 110.281 39.4759 110.956C39.7786 102.505 45.2098 98.5005 48.3689 96.8687Z" fill="#263238"/>
<path d="M61.1344 25.7146H38.6689C37.8651 25.7146 37.0943 26.0339 36.526 26.6022C35.9577 27.1705 35.6384 27.9413 35.6384 28.745V40.5745C35.6384 41.3782 35.9577 42.149 36.526 42.7173C37.0943 43.2856 37.8651 43.6049 38.6689 43.6049H44.4444L48.4421 50.0207L48.8178 43.6049H61.1239C61.9277 43.6049 62.6985 43.2856 63.2668 42.7173C63.8351 42.149 64.1544 41.3782 64.1544 40.5745V28.745C64.1544 27.9431 63.8365 27.1739 63.2705 26.6059C62.7044 26.0379 61.9363 25.7174 61.1344 25.7146Z" fill="#263238"/>
<path d="M48.5952 50.5739L44.347 43.7789H38.6689C37.8193 43.778 37.0048 43.4401 36.404 42.8393C35.8033 42.2386 35.4654 41.4241 35.4645 40.5745V28.745C35.4663 27.8957 35.8045 27.0818 36.4051 26.4812C37.0056 25.8807 37.8196 25.5425 38.6689 25.5406H61.1344C61.984 25.5416 62.7985 25.8795 63.3992 26.4802C64 27.081 64.3379 27.8955 64.3388 28.745V40.5745C64.3379 41.4241 64 42.2386 63.3992 42.8393C62.7985 43.4401 61.984 43.778 61.1344 43.7789H48.9953L48.5952 50.5739ZM38.6689 25.8886C37.9119 25.8904 37.1864 26.1919 36.6511 26.7272C36.1158 27.2625 35.8142 27.988 35.8124 28.745V40.5745C35.8133 41.3318 36.1146 42.0578 36.6501 42.5933C37.1856 43.1288 37.9116 43.43 38.6689 43.431H44.5384L48.3099 49.464L48.6578 43.431H61.1274C61.8847 43.43 62.6108 43.1288 63.1463 42.5933C63.6817 42.0578 63.983 41.3318 63.9839 40.5745V28.745C63.983 27.9877 63.6817 27.2617 63.1463 26.7262C62.6108 26.1907 61.8847 25.8895 61.1274 25.8886H38.6689Z" fill="#263238"/>
<path d="M60.1706 24.7404H37.7016C37.3035 24.7399 36.9092 24.818 36.5413 24.9701C36.1735 25.1222 35.8392 25.3454 35.5577 25.6269C35.2762 25.9084 35.053 26.2427 34.9009 26.6106C34.7488 26.9784 34.6707 27.3727 34.6711 27.7708V39.6002C34.6711 39.9982 34.7495 40.3923 34.9018 40.7599C35.0541 41.1276 35.2773 41.4617 35.5587 41.7431C35.8401 42.0245 36.1742 42.2477 36.5419 42.4C36.9095 42.5523 37.3036 42.6307 37.7016 42.6307H43.4771L47.4852 49.0464L47.8645 42.6307H60.1706C60.5684 42.6307 60.9623 42.5523 61.3298 42.3999C61.6972 42.2476 62.0311 42.0243 62.3122 41.7429C62.5933 41.4614 62.8162 41.1273 62.9681 40.7597C63.12 40.392 63.198 39.998 63.1975 39.6002V27.7708C63.198 27.373 63.12 26.979 62.9681 26.6114C62.8162 26.2437 62.5933 25.9096 62.3122 25.6282C62.0311 25.3467 61.6972 25.1234 61.3298 24.9711C60.9623 24.8188 60.5684 24.7404 60.1706 24.7404Z" fill="white"/>
<path d="M47.628 49.6101L43.3798 42.8116H37.7017C36.8521 42.8107 36.0376 42.4728 35.4369 41.872C34.8361 41.2713 34.4982 40.4568 34.4973 39.6072V27.7778C34.4982 26.9282 34.8361 26.1137 35.4369 25.5129C36.0376 24.9122 36.8521 24.5743 37.7017 24.5734H60.1707C61.0203 24.5743 61.8348 24.9122 62.4355 25.5129C63.0363 26.1137 63.3742 26.9282 63.3751 27.7778V39.6072C63.3742 40.4568 63.0363 41.2713 62.4355 41.872C61.8348 42.4728 61.0203 42.8107 60.1707 42.8116H48.0281L47.628 49.6101ZM37.7017 24.9248C36.9444 24.9257 36.2184 25.2269 35.6829 25.7624C35.1474 26.2979 34.8462 27.0239 34.8452 27.7812V39.6107C34.8462 40.368 35.1474 41.094 35.6829 41.6295C36.2184 42.165 36.9444 42.4662 37.7017 42.4672H43.5712L47.3427 48.5037L47.6906 42.4672H60.1638C60.9211 42.4662 61.6471 42.165 62.1826 41.6295C62.7181 41.094 63.0193 40.368 63.0202 39.6107V27.7812C63.0193 27.0239 62.7181 26.2979 62.1826 25.7624C61.6471 25.2269 60.9211 24.9257 60.1638 24.9248H37.7017Z" fill="#263238"/>
<path d="M43.9818 34.7885C44.7158 34.7885 45.3109 34.1935 45.3109 33.4594C45.3109 32.7254 44.7158 32.1304 43.9818 32.1304C43.2478 32.1304 42.6527 32.7254 42.6527 33.4594C42.6527 34.1935 43.2478 34.7885 43.9818 34.7885Z" fill="#263238"/>
<path d="M49.7816 34.7885C50.5156 34.7885 51.1107 34.1935 51.1107 33.4594C51.1107 32.7254 50.5156 32.1304 49.7816 32.1304C49.0476 32.1304 48.4525 32.7254 48.4525 33.4594C48.4525 34.1935 49.0476 34.7885 49.7816 34.7885Z" fill="#263238"/>
<path d="M56.914 33.4594C56.914 33.7223 56.8361 33.9793 56.69 34.1978C56.544 34.4164 56.3364 34.5868 56.0935 34.6874C55.8507 34.7879 55.5835 34.8143 55.3256 34.763C55.0678 34.7117 54.831 34.5851 54.6451 34.3992C54.4593 34.2134 54.3327 33.9766 54.2814 33.7187C54.2301 33.4609 54.2564 33.1937 54.357 32.9508C54.4576 32.708 54.628 32.5004 54.8465 32.3544C55.0651 32.2083 55.3221 32.1304 55.5849 32.1304C55.9371 32.1313 56.2747 32.2716 56.5237 32.5207C56.7728 32.7697 56.9131 33.1072 56.914 33.4594Z" fill="#263238"/>
<path d="M20.375 59.8181C17.8687 59.8188 15.4184 59.0762 13.3342 57.6843C11.2499 56.2923 9.62524 54.3136 8.66563 51.9982C7.70603 49.6829 7.4546 47.135 7.94313 44.6767C8.43167 42.2185 9.63823 39.9603 11.4102 38.1878C13.1822 36.4154 15.44 35.2082 17.8982 34.719C20.3563 34.2297 22.9043 34.4805 25.2199 35.4394C27.5355 36.3984 29.5147 38.0225 30.9072 40.1064C32.2997 42.1903 33.043 44.6403 33.043 47.1467C33.0393 50.5056 31.7035 53.726 29.3287 56.1014C26.9539 58.4769 23.7339 59.8135 20.375 59.8181ZM20.375 34.8266C17.9373 34.8259 15.5542 35.5482 13.5271 36.9021C11.5 38.2559 9.91991 40.1806 8.98674 42.4325C8.05357 44.6845 7.80923 47.1626 8.28463 49.5535C8.76002 51.9443 9.93379 54.1405 11.6575 55.8642C13.3812 57.5879 15.5773 58.7616 17.9682 59.237C20.359 59.7124 22.8372 59.4681 25.0891 58.5349C27.3411 57.6017 29.2657 56.0217 30.6196 53.9945C31.9735 51.9674 32.6957 49.5843 32.695 47.1467C32.6895 43.8812 31.3896 40.7511 29.0803 38.4424C26.7709 36.1337 23.6405 34.8347 20.375 34.8301V34.8266ZM20.375 58.4299C18.1434 58.4299 15.9619 57.7681 14.1064 56.5283C12.2509 55.2885 10.8047 53.5263 9.95066 51.4646C9.09666 49.4028 8.87322 47.1341 9.30858 44.9454C9.74395 42.7567 10.8186 40.7462 12.3966 39.1682C13.9745 37.5902 15.985 36.5156 18.1737 36.0803C20.3625 35.6449 22.6312 35.8683 24.6929 36.7223C26.7546 37.5763 28.5168 39.0225 29.7566 40.878C30.9965 42.7336 31.6582 44.915 31.6582 47.1467C31.6554 50.1383 30.4658 53.0066 28.3504 55.122C26.235 57.2375 23.3666 58.4271 20.375 58.4299ZM20.375 36.2148C18.2121 36.2148 16.0977 36.8563 14.2993 38.058C12.5009 39.2598 11.0993 40.9678 10.2718 42.9662C9.44421 44.9646 9.22786 47.1635 9.65008 49.2848C10.0723 51.4061 11.1141 53.3546 12.6438 54.8838C14.1735 56.413 16.1223 57.4542 18.2438 57.8757C20.3652 58.2973 22.5641 58.0802 24.5622 57.252C26.5603 56.4238 28.2679 55.0217 29.469 53.2229C30.6702 51.4242 31.311 49.3096 31.3103 47.1467C31.3057 44.2488 30.1518 41.4711 28.1017 39.423C26.0516 37.3749 23.2728 36.2236 20.375 36.2218V36.2148Z" fill="#263238"/>
<path d="M21.689 47.3953L21.6002 47.7317L25.7246 48.8199L25.8134 48.4835L21.689 47.3953Z" fill="#263238"/>
<path d="M14.7838 38.6756L14.4979 38.8739L19.5121 46.1045L19.798 45.9062L14.7838 38.6756Z" fill="#263238"/>
<path d="M20.3749 48.6915C20.0691 48.6922 19.77 48.6021 19.5154 48.4326C19.2608 48.2631 19.0623 48.0219 18.9449 47.7395C18.8276 47.4571 18.7967 47.1462 18.8562 46.8462C18.9157 46.5462 19.0629 46.2706 19.2791 46.0544C19.4954 45.8381 19.7709 45.6909 20.0709 45.6314C20.3709 45.5719 20.6818 45.6028 20.9642 45.7202C21.2466 45.8375 21.4879 46.0361 21.6573 46.2906C21.8268 46.5452 21.9169 46.8444 21.9162 47.1502C21.9153 47.5587 21.7526 47.9502 21.4638 48.239C21.1749 48.5279 20.7834 48.6906 20.3749 48.6915ZM20.3749 45.9533C20.1381 45.9526 19.9063 46.0222 19.709 46.1533C19.5118 46.2844 19.3578 46.4711 19.2667 46.6898C19.1756 46.9084 19.1514 47.1492 19.1972 47.3815C19.2429 47.6139 19.3567 47.8275 19.5239 47.9953C19.6912 48.163 19.9044 48.2773 20.1367 48.3238C20.3689 48.3703 20.6098 48.3468 20.8287 48.2563C21.0476 48.1658 21.2347 48.0124 21.3664 47.8155C21.498 47.6186 21.5683 47.3871 21.5683 47.1502C21.5656 46.8352 21.4387 46.534 21.2153 46.3118C20.9919 46.0897 20.6899 45.9647 20.3749 45.9638V45.9533Z" fill="#263238"/>
</svg>
