<svg width="178" height="179" viewBox="0 0 178 179" fill="none" xmlns="http://www.w3.org/2000/svg">
<rect width="60.5581" height="60.5581" rx="8.35284" transform="matrix(0.707107 0.707107 0.707107 -0.707107 0 89.5953)" fill="black"/>
<circle cx="43.0171" cy="98.8386" r="6.26463" transform="rotate(180 43.0171 98.8386)" fill="white"/>
<circle cx="43.0171" cy="80.0447" r="6.26463" transform="rotate(180 43.0171 80.0447)" fill="white"/>
<rect width="60.5581" height="60.5581" rx="8.35284" transform="matrix(0.707107 0.707107 0.707107 -0.707107 45.7742 43.8211)" fill="#61C199"/>
<rect width="60.5581" height="60.5581" rx="8.35284" transform="matrix(0.707107 0.707107 0.707107 -0.707107 45.7742 135.37)" fill="#61C199"/>
<rect x="107.655" y="129.988" width="10.6145" height="37.909" transform="rotate(90 107.655 129.988)" fill="white"/>
<rect x="107.655" y="129.988" width="10.6145" height="37.909" transform="rotate(90 107.655 129.988)" fill="white"/>
<rect x="107.655" y="38.5246" width="10.6145" height="37.909" transform="rotate(90 107.655 38.5246)" fill="white"/>
<rect x="107.655" y="38.5246" width="10.6145" height="37.909" transform="rotate(90 107.655 38.5246)" fill="white"/>
<rect x="94.6145" y="62.9091" width="10.6145" height="37.909" transform="rotate(180 94.6145 62.9091)" fill="white"/>
<rect x="94.6145" y="62.9091" width="10.6145" height="37.909" transform="rotate(180 94.6145 62.9091)" fill="white"/>
<rect width="60.5581" height="60.5581" rx="8.35284" transform="matrix(0.707107 0.707107 0.707107 -0.707107 92 89.821)" fill="black"/>
<circle cx="122.745" cy="101.387" r="6.68227" transform="rotate(180 122.745 101.387)" fill="white"/>
<circle cx="146.217" cy="77.9142" r="6.68227" transform="rotate(180 146.217 77.9142)" fill="white"/>
<rect width="10.6145" height="37.9091" transform="matrix(-0.707107 0.707107 0.707107 0.707107 124.863 72.4624)" fill="white"/>
</svg>
